<svg width="926" height="600" viewBox="0 0 926 600" fill="none" xmlns="http://www.w3.org/2000/svg">
<mask id="mask0_28_535" style="mask-type:alpha" maskUnits="userSpaceOnUse" x="0" y="0" width="926" height="600">
<rect width="926" height="600" rx="28" fill="#A2D67E"/>
</mask>
<g mask="url(#mask0_28_535)">
<path d="M833.9 96.5L907 -38.2L833.9 96.5Z" fill="#F8F8F8"/>
<path d="M1022 5.3L1021.9 5.10001V5L959.7 -137.2L959.8 -137.3H959.7L959.6 -137.4L959.5 -137.3L487.7 -152.8H487.6V-153V-152.9H487.5V-152.8H486.8L487.1 -152.7L257.2 -131.7L257.1 -131.9L257 -131.7L111 -152.8H110.9L110.8 -153V-152.8H110.7L22.1 -143.8L56.9 41.1H56.8L56.9 41.2V41.3L23.7 254.4V254.5V254.6L68.7 517L68.6 516.9L68.7 517.2H68.6L68.7 517.3L68.6 517.5H68.7L22.1 834.6L22 834.8H22.1V835.1L22.3 834.8L143.6 809.9V810L143.7 809.9H143.8L206.5 765.9L206.6 765.8L206.7 765.9V765.8L299.9 833.3V833.4H300L300.2 833.5V833.3L379.9 797.3V797.4L380 797.3L380.1 797.4V797.3L504.9 833.3L504.8 833.5L505 833.4V833.6L505.1 833.4H505.2V833.3L612.7 759.8V760L612.8 759.8L612.9 760.1L613 759.7L812 833.2V833.3H812.1L812.2 833.5V833.3H812.3L812.2 833.2L971.2 781.4L971.3 781.5V781.4H971.4L971.3 781.3L1020.3 496.7H1020.4L1020.3 496.6L1020.4 496.5H1020.3V496.3L1020.2 496.4L971.2 227V226.8L1021.8 5.2L1022 5.3ZM959.5 -137L1021.6 4.89999L1012.6 1.5L907.3 -38.5L907.1 -38.6L907.2 -38.7L939.2 -98.9L959.5 -137ZM959.4 -137.2L907 -38.6H906.9L799.9 -67.7L488.5 -152.6L959.4 -137.2ZM971 226.6L800.3 158.3L833.9 96.5L800.3 158.4L907.1 -38.4L907 -38.2L971 226.6ZM970.3 364L800.5 158.6L865.1 184.4L971.1 226.8L970.3 364ZM837.3 669.4L772.6 748.8L764.7 546.6L815.2 632.1L837.3 669.4ZM281.8 706.7L267.8 696.7L194.3 643.9L301.5 636.4L293.6 664.7L281.8 706.7ZM193.8 643.8L123.6 684.2V684.1L69.1 517.8L117.6 566.8L193.8 643.8ZM69.1 517.4L230.1 476L249.2 471.1L193.9 643.6L69.1 517.4ZM800.2 158.1L799.9 157.9L800 158.2L598.6 69.7L906.8 -38.3L800.2 158.1ZM881.6 434.2L887.1 452.8L694.3 367.3L800.2 158.7L881.6 434.2ZM800.1 158.4L773.9 210.1L694.2 367L598.6 69.9L800.1 158.4ZM694 367.3L621.1 427.9L580.3 461.8L587.5 280.5L589.8 223.4L694 367.3ZM618.8 133.5L693.8 366.6L589.8 223L593.4 160.3L598.5 70.3L618.8 133.5ZM589.6 222.7V222.9L368.4 197.4L598.3 69.9L589.6 222.7ZM589.6 223.1L587 287.7L580.1 461.6V461.7L579.2 460.6L368.3 197.6L589.6 223.1ZM580 461.9L408.5 591L398.9 497.8L368.1 197.7L580 461.9ZM367.9 197.7L328 351.8L322.9 371.4V371.3V371.5L230.6 292.1L247.1 280.7L367.9 197.7ZM322.8 371.8L249.4 470.7L249 467L230.5 292.4L322.8 371.8ZM301.5 636.2L290.3 637L194.2 643.7L223.4 552.5L249.4 471.3L301.5 636.2ZM249.5 471L289.2 417.5L322.9 372.2L301.6 635.8L249.5 471ZM306.9 571.5L323 372.2L408.3 591.1L318.6 629L301.7 636.1L306.9 571.5ZM408.3 590.4L323.1 371.8L334.3 328.6L368 198L408.3 590.4ZM367.8 197.5L230.5 291.9L219 166.3L206 23.4L248.4 69L367.9 197.4L367.8 197.5ZM226 245.5L230.2 291.7L57.2 41.2L150.6 29.9L205.7 23.2L226 245.5ZM230.3 292.4L249.3 470.9L69.1 517.2L230.3 292.4ZM301.6 636.7L301.7 636.9V636.5L360.7 676.5L392.3 697.9L281.9 706.9L301.6 636.7ZM301.8 636.3L408.3 591.4L407.4 597.5L392.5 697.7L301.8 636.3ZM405 615.3L408.5 591.6L408.6 591.9V591.6L479.5 705.3L411.1 699.4L392.7 697.8L405 615.3ZM408.6 591.2L536.1 495.2L580 462.2L490.1 680L479.7 705.2L408.6 591.2ZM479.9 705.2L564.4 500.5L580.1 462.4L586.4 655.7L513 689.8L479.9 705.2ZM580.3 462.3L585.9 470.8L641.8 555.1L586.6 655.4L580.3 462.3ZM580.3 462L694 367.6L641.9 554.9L580.3 462ZM646.2 540.1L694.2 367.6L703 390L764.4 546L723.3 549L642 555L646.2 540.1ZM735.1 470.9L694.4 367.5L887.1 453L764.7 546V545.9L764.6 546L735.1 470.9ZM764.7 546.1L887.1 453.2L837.4 669.1L764.7 546.1ZM887.3 453.1L989.7 486.7L1020 496.6L837.6 669L887.3 453.1ZM887.3 452.7L800.4 158.8L830.7 195.4L970.2 364.2L887.3 452.7ZM889.2 -43.3L906.7 -38.5L598.5 69.5H598.4L598.3 69.1V69.3L500.3 -127.3L487.8 -152.6L889.2 -43.3ZM487.6 -152.5L542.8 -41.7L598.3 69.6H598.2L368.3 197.2L410.2 74.3L487.6 -152.5ZM487.4 -152.6L368.1 197V196.9L368 197.1L357.8 166.9L257.3 -131.5L487.4 -152.6ZM257.1 -131.3L279.6 -64.6L367.8 197L206 23.1L257.1 -131.3ZM257 -131.5L205.8 22.9L174.3 -35.5L111.1 -152.6L257 -131.5ZM110.9 -152.4L205.7 23L174.7 26.8L57.2 41L110.9 -152.4ZM22.3 -143.6L110.7 -152.6L57.1 40.7L22.3 -143.6ZM57.1 41.4L230.1 292L23.9 254.5L57.1 41.4ZM23.9 254.7L230.2 292.2L126.7 436.5L69 517.1L23.9 254.7ZM68.9 517.8L123.4 684.3L49.7 793.8L22.4 834.2L68.9 517.8ZM22.5 834.5L103.5 714.4L123.6 684.6L132.6 740.6L143.7 809.6L22.5 834.5ZM143.8 809.5L138.9 778.9L123.7 684.6L160.2 720.3L206.5 765.5L143.8 809.5ZM123.7 684.4L168.9 658.3L193.9 643.9L196.5 668.5L206.6 765.2L123.7 684.4ZM206.7 765.3L194.1 644L205.5 652.2L281.6 706.9L206.7 765.3ZM206.8 765.5L220.5 754.8L281.7 707.1L299.8 832.9L206.8 765.5ZM300.1 833L282 707.2L328.3 749.7L379.8 797.1L300.1 833ZM379.9 796.9L282.1 707L392.5 698L379.9 796.9ZM392.7 698L425.5 700.8L479.4 705.5L452.2 730.5L380 796.9L392.7 698ZM380.2 797L479.6 705.6L484.9 732.4L504.9 833L380.2 797ZM505 832.8L479.8 705.5H479.9V705.4L586.3 656L505 832.8ZM612.2 759.5L612.5 759.6L505.2 832.9L586.4 656.2L612.5 759.5H612.2ZM612.7 759L586.6 655.9L641.7 555.7L612.7 759ZM642 555.2L761.4 546.4L764.3 546.2L671.5 676.6L612.8 759.1L642 555.2ZM764.5 546.4L772.4 748.9L612.9 759.4L764.5 546.4ZM613.2 759.6L772 749.1H772.4V749.3L772.5 749.2L775.1 754.6L811.9 832.9L613.2 759.6ZM812 832.8L772.6 749L791.1 726.3L837.2 669.7L812 832.8ZM812.2 833L813.7 823.1L837.4 669.5L854 683.4L971 781.3L812.2 833ZM971.1 781.1L837.6 669.3L1020.1 496.8L971.1 781.1ZM897.2 456.1L887.4 452.9L914.3 424.2L970.3 364.5L1020 496.4L897.2 456.1ZM1019.9 495.4L970.5 364.3L971.3 228L1019.9 495.4ZM971.2 226.3L955.2 160.3L907.2 -38.3L1021.7 5.2L971.2 226.3Z" fill="#F8F8F8"/>
</g>
</svg>
