<svg width="1860" height="700" viewBox="0 0 1860 700" fill="none" xmlns="http://www.w3.org/2000/svg">
<rect width="1860" height="700" rx="30" fill="#E6E6E6"/>
<mask id="mask0_366_2165" style="mask-type:alpha" maskUnits="userSpaceOnUse" x="0" y="0" width="1860" height="700">
<rect width="1860" height="700" rx="30" fill="#E6E6E6"/>
</mask>
<g mask="url(#mask0_366_2165)">
<mask id="mask1_366_2165" style="mask-type:alpha" maskUnits="userSpaceOnUse" x="-15" y="-39" width="1011" height="1126">
<rect x="-15" y="-38.7499" width="1011" height="1125" fill="white"/>
</mask>
<g mask="url(#mask1_366_2165)">
<path d="M818.9 224.375L892 56L818.9 224.375Z" fill="white"/>
<path d="M1007 110.375L1006.9 110.125V110L944.7 -67.75L944.8 -67.875H944.7L944.6 -68L944.5 -67.875L472.7 -87.25H472.6V-87.5V-87.375H472.5V-87.25H471.8L472.1 -87.125L242.2 -60.875L242.1 -61.125L242 -60.875L96 -87.25H95.9L95.8 -87.5V-87.25H95.7L7.1 -76L41.9 155.125H41.8L41.9 155.25V155.375L8.7 421.75V421.875V422L53.7 750L53.6 749.875L53.7 750.25H53.6L53.7 750.375L53.6 750.625H53.7L7.1 1147L7 1147.25H7.1V1147.62L7.3 1147.25L128.6 1116.12V1116.25L128.7 1116.12H128.8L191.5 1061.12L191.6 1061L191.7 1061.12V1061L284.9 1145.38V1145.5H285L285.2 1145.62V1145.38L364.9 1100.38V1100.5L365 1100.38L365.1 1100.5V1100.38L489.9 1145.38L489.8 1145.62L490 1145.5V1145.75L490.1 1145.5H490.2V1145.38L597.7 1053.5V1053.75L597.8 1053.5L597.9 1053.88L598 1053.38L797 1145.25V1145.38H797.1L797.2 1145.62V1145.38H797.3L797.2 1145.25L956.2 1080.5L956.3 1080.62V1080.5H956.4L956.3 1080.38L1005.3 724.625H1005.4L1005.3 724.5L1005.4 724.375H1005.3V724.125L1005.2 724.25L956.2 387.5V387.25L1006.8 110.25L1007 110.375ZM944.5 -67.5L1006.6 109.875L997.6 105.625L892.3 55.625L892.1 55.5L892.2 55.375L924.2 -19.875L944.5 -67.5ZM944.4 -67.75L892 55.5H891.9L784.9 19.125L473.5 -87L944.4 -67.75ZM956 387L785.3 301.625L818.9 224.375L785.3 301.75L892.1 55.75L892 56L956 387ZM955.3 558.75L785.5 302L850.1 334.25L956.1 387.25L955.3 558.75ZM822.3 940.5L757.6 1039.75L749.7 787L800.2 893.875L822.3 940.5ZM266.8 987.125L252.8 974.625L179.3 908.625L286.5 899.25L278.6 934.625L266.8 987.125ZM178.8 908.5L108.6 959V958.875L54.1 751L102.6 812.25L178.8 908.5ZM54.1 750.5L215.1 698.75L234.2 692.625L178.9 908.25L54.1 750.5ZM785.2 301.375L784.9 301.125L785 301.5L583.6 190.875L891.8 55.875L785.2 301.375ZM866.6 646.5L872.1 669.75L679.3 562.875L785.2 302.125L866.6 646.5ZM785.1 301.75L758.9 366.375L679.2 562.5L583.6 191.125L785.1 301.75ZM679 562.875L606.1 638.625L565.3 681L572.5 454.375L574.8 383L679 562.875ZM603.8 270.625L678.8 562L574.8 382.5L578.4 304.125L583.5 191.625L603.8 270.625ZM574.6 382.125V382.375L353.4 350.5L583.3 191.125L574.6 382.125ZM574.6 382.625L572 463.375L565.1 680.75V680.875L564.2 679.5L353.3 350.75L574.6 382.625ZM565 681.125L393.5 842.5L383.9 726L353.1 350.875L565 681.125ZM352.9 350.875L313 543.5L307.9 568V567.875V568.125L215.6 468.875L232.1 454.625L352.9 350.875ZM307.8 568.5L234.4 692.125L234 687.5L215.5 469.25L307.8 568.5ZM286.5 899L275.3 900L179.2 908.375L208.4 794.375L234.4 692.875L286.5 899ZM234.5 692.5L274.2 625.625L307.9 569L286.6 898.5L234.5 692.5ZM291.9 818.125L308 569L393.3 842.625L303.6 890L286.7 898.875L291.9 818.125ZM393.3 841.75L308.1 568.5L319.3 514.5L353 351.25L393.3 841.75ZM352.8 350.625L215.5 468.625L204 311.625L191 133L233.4 190L352.9 350.5L352.8 350.625ZM211 410.625L215.2 468.375L42.2 155.25L135.6 141.125L190.7 132.75L211 410.625ZM215.3 469.25L234.3 692.375L54.1 750.25L215.3 469.25ZM286.6 899.625L286.7 899.875V899.375L345.7 949.375L377.3 976.125L266.9 987.375L286.6 899.625ZM286.8 899.125L393.3 843L392.4 850.625L377.5 975.875L286.8 899.125ZM390 872.875L393.5 843.25L393.6 843.625V843.25L464.5 985.375L396.1 978L377.7 976L390 872.875ZM393.6 842.75L521.1 722.75L565 681.5L475.1 953.75L464.7 985.25L393.6 842.75ZM464.9 985.25L549.4 729.375L565.1 681.75L571.4 923.375L498 966L464.9 985.25ZM565.3 681.625L570.9 692.25L626.8 797.625L571.6 923L565.3 681.625ZM565.3 681.25L679 563.25L626.9 797.375L565.3 681.25ZM631.2 778.875L679.2 563.25L688 591.25L749.4 786.25L708.3 790L627 797.5L631.2 778.875ZM720.1 692.375L679.4 563.125L872.1 670L749.7 786.25V786.125L749.6 786.25L720.1 692.375ZM749.7 786.375L872.1 670.25L822.4 940.125L749.7 786.375ZM872.3 670.125L974.7 712.125L1005 724.5L822.6 940L872.3 670.125ZM872.3 669.625L785.4 302.25L815.7 348L955.2 559L872.3 669.625ZM874.2 49.625L891.7 55.625L583.5 190.625H583.4L583.3 190.125V190.375L485.3 -55.375L472.8 -87L874.2 49.625ZM472.6 -86.875L527.8 51.625L583.3 190.75H583.2L353.3 350.25L395.2 196.625L472.6 -86.875ZM472.4 -87L353.1 350V349.875L353 350.125L342.8 312.375L242.3 -60.625L472.4 -87ZM242.1 -60.375L264.6 23L352.8 350L191 132.625L242.1 -60.375ZM242 -60.625L190.8 132.375L159.3 59.375L96.1 -87L242 -60.625ZM95.9 -86.75L190.7 132.5L159.7 137.25L42.2 155L95.9 -86.75ZM7.3 -75.75L95.7 -87L42.1 154.625L7.3 -75.75ZM42.1 155.5L215.1 468.75L8.9 421.875L42.1 155.5ZM8.9 422.125L215.2 469L111.7 649.375L54 750.125L8.9 422.125ZM53.9 751L108.4 959.125L34.7 1096L7.4 1146.5L53.9 751ZM7.5 1146.88L88.5 996.75L108.6 959.5L117.6 1029.5L128.7 1115.75L7.5 1146.88ZM128.8 1115.62L123.9 1077.38L108.7 959.5L145.2 1004.12L191.5 1060.62L128.8 1115.62ZM108.7 959.25L153.9 926.625L178.9 908.625L181.5 939.375L191.6 1060.25L108.7 959.25ZM191.7 1060.38L179.1 908.75L190.5 919L266.6 987.375L191.7 1060.38ZM191.8 1060.62L205.5 1047.25L266.7 987.625L284.8 1144.88L191.8 1060.62ZM285.1 1145L267 987.75L313.3 1040.88L364.8 1100.12L285.1 1145ZM364.9 1099.88L267.1 987.5L377.5 976.25L364.9 1099.88ZM377.7 976.25L410.5 979.75L464.4 985.625L437.2 1016.88L365 1099.88L377.7 976.25ZM365.2 1100L464.6 985.75L469.9 1019.25L489.9 1145L365.2 1100ZM490 1144.75L464.8 985.625H464.9V985.5L571.3 923.75L490 1144.75ZM597.2 1053.12L597.5 1053.25L490.2 1144.88L571.4 924L597.5 1053.12H597.2ZM597.7 1052.5L571.6 923.625L626.7 798.375L597.7 1052.5ZM627 797.75L746.4 786.75L749.3 786.5L656.5 949.5L597.8 1052.62L627 797.75ZM749.5 786.75L757.4 1039.88L597.9 1053L749.5 786.75ZM598.2 1053.25L757 1040.12H757.4V1040.38L757.5 1040.25L760.1 1047L796.9 1144.88L598.2 1053.25ZM797 1144.75L757.6 1040L776.1 1011.62L822.2 940.875L797 1144.75ZM797.2 1145L798.7 1132.62L822.4 940.625L839 958L956 1080.38L797.2 1145ZM956.1 1080.12L822.6 940.375L1005.1 724.75L956.1 1080.12ZM882.2 673.875L872.4 669.875L899.3 634L955.3 559.375L1005 724.25L882.2 673.875ZM1004.9 723L955.5 559.125L956.3 388.75L1004.9 723ZM956.2 386.625L940.2 304.125L892.2 55.875L1006.7 110.25L956.2 386.625Z" fill="white"/>
</g>
<mask id="mask2_366_2165" style="mask-type:alpha" maskUnits="userSpaceOnUse" x="864" y="-39" width="1011" height="1126">
<rect x="864" y="-38.7499" width="1011" height="1125" fill="white"/>
</mask>
<g mask="url(#mask2_366_2165)">
<path d="M1697.9 224.375L1771 56L1697.9 224.375Z" fill="white"/>
<path d="M1886 110.375L1885.9 110.125V110L1823.7 -67.75L1823.8 -67.875H1823.7L1823.6 -68L1823.5 -67.875L1351.7 -87.25H1351.6V-87.5V-87.375H1351.5V-87.25H1350.8L1351.1 -87.125L1121.2 -60.875L1121.1 -61.125L1121 -60.875L975 -87.25H974.9L974.8 -87.5V-87.25H974.7L886.1 -76L920.9 155.125H920.8L920.9 155.25V155.375L887.7 421.75V421.875V422L932.7 750L932.6 749.875L932.7 750.25H932.6L932.7 750.375L932.6 750.625H932.7L886.1 1147L886 1147.25H886.1V1147.62L886.3 1147.25L1007.6 1116.12V1116.25L1007.7 1116.12H1007.8L1070.5 1061.12L1070.6 1061L1070.7 1061.12V1061L1163.9 1145.38V1145.5H1164L1164.2 1145.62V1145.38L1243.9 1100.38V1100.5L1244 1100.38L1244.1 1100.5V1100.38L1368.9 1145.38L1368.8 1145.62L1369 1145.5V1145.75L1369.1 1145.5H1369.2V1145.38L1476.7 1053.5V1053.75L1476.8 1053.5L1476.9 1053.88L1477 1053.38L1676 1145.25V1145.38H1676.1L1676.2 1145.62V1145.38H1676.3L1676.2 1145.25L1835.2 1080.5L1835.3 1080.62V1080.5H1835.4L1835.3 1080.38L1884.3 724.625H1884.4L1884.3 724.5L1884.4 724.375H1884.3V724.125L1884.2 724.25L1835.2 387.5V387.25L1885.8 110.25L1886 110.375ZM1823.5 -67.5L1885.6 109.875L1876.6 105.625L1771.3 55.625L1771.1 55.5L1771.2 55.375L1803.2 -19.875L1823.5 -67.5ZM1823.4 -67.75L1771 55.5H1770.9L1663.9 19.125L1352.5 -87L1823.4 -67.75ZM1835 387L1664.3 301.625L1697.9 224.375L1664.3 301.75L1771.1 55.75L1771 56L1835 387ZM1834.3 558.75L1664.5 302L1729.1 334.25L1835.1 387.25L1834.3 558.75ZM1701.3 940.5L1636.6 1039.75L1628.7 787L1679.2 893.875L1701.3 940.5ZM1145.8 987.125L1131.8 974.625L1058.3 908.625L1165.5 899.25L1157.6 934.625L1145.8 987.125ZM1057.8 908.5L987.6 959V958.875L933.1 751L981.6 812.25L1057.8 908.5ZM933.1 750.5L1094.1 698.75L1113.2 692.625L1057.9 908.25L933.1 750.5ZM1664.2 301.375L1663.9 301.125L1664 301.5L1462.6 190.875L1770.8 55.875L1664.2 301.375ZM1745.6 646.5L1751.1 669.75L1558.3 562.875L1664.2 302.125L1745.6 646.5ZM1664.1 301.75L1637.9 366.375L1558.2 562.5L1462.6 191.125L1664.1 301.75ZM1558 562.875L1485.1 638.625L1444.3 681L1451.5 454.375L1453.8 383L1558 562.875ZM1482.8 270.625L1557.8 562L1453.8 382.5L1457.4 304.125L1462.5 191.625L1482.8 270.625ZM1453.6 382.125V382.375L1232.4 350.5L1462.3 191.125L1453.6 382.125ZM1453.6 382.625L1451 463.375L1444.1 680.75V680.875L1443.2 679.5L1232.3 350.75L1453.6 382.625ZM1444 681.125L1272.5 842.5L1262.9 726L1232.1 350.875L1444 681.125ZM1231.9 350.875L1192 543.5L1186.9 568V567.875V568.125L1094.6 468.875L1111.1 454.625L1231.9 350.875ZM1186.8 568.5L1113.4 692.125L1113 687.5L1094.5 469.25L1186.8 568.5ZM1165.5 899L1154.3 900L1058.2 908.375L1087.4 794.375L1113.4 692.875L1165.5 899ZM1113.5 692.5L1153.2 625.625L1186.9 569L1165.6 898.5L1113.5 692.5ZM1170.9 818.125L1187 569L1272.3 842.625L1182.6 890L1165.7 898.875L1170.9 818.125ZM1272.3 841.75L1187.1 568.5L1198.3 514.5L1232 351.25L1272.3 841.75ZM1231.8 350.625L1094.5 468.625L1083 311.625L1070 133L1112.4 190L1231.9 350.5L1231.8 350.625ZM1090 410.625L1094.2 468.375L921.2 155.25L1014.6 141.125L1069.7 132.75L1090 410.625ZM1094.3 469.25L1113.3 692.375L933.1 750.25L1094.3 469.25ZM1165.6 899.625L1165.7 899.875V899.375L1224.7 949.375L1256.3 976.125L1145.9 987.375L1165.6 899.625ZM1165.8 899.125L1272.3 843L1271.4 850.625L1256.5 975.875L1165.8 899.125ZM1269 872.875L1272.5 843.25L1272.6 843.625V843.25L1343.5 985.375L1275.1 978L1256.7 976L1269 872.875ZM1272.6 842.75L1400.1 722.75L1444 681.5L1354.1 953.75L1343.7 985.25L1272.6 842.75ZM1343.9 985.25L1428.4 729.375L1444.1 681.75L1450.4 923.375L1377 966L1343.9 985.25ZM1444.3 681.625L1449.9 692.25L1505.8 797.625L1450.6 923L1444.3 681.625ZM1444.3 681.25L1558 563.25L1505.9 797.375L1444.3 681.25ZM1510.2 778.875L1558.2 563.25L1567 591.25L1628.4 786.25L1587.3 790L1506 797.5L1510.2 778.875ZM1599.1 692.375L1558.4 563.125L1751.1 670L1628.7 786.25V786.125L1628.6 786.25L1599.1 692.375ZM1628.7 786.375L1751.1 670.25L1701.4 940.125L1628.7 786.375ZM1751.3 670.125L1853.7 712.125L1884 724.5L1701.6 940L1751.3 670.125ZM1751.3 669.625L1664.4 302.25L1694.7 348L1834.2 559L1751.3 669.625ZM1753.2 49.625L1770.7 55.625L1462.5 190.625H1462.4L1462.3 190.125V190.375L1364.3 -55.375L1351.8 -87L1753.2 49.625ZM1351.6 -86.875L1406.8 51.625L1462.3 190.75H1462.2L1232.3 350.25L1274.2 196.625L1351.6 -86.875ZM1351.4 -87L1232.1 350V349.875L1232 350.125L1221.8 312.375L1121.3 -60.625L1351.4 -87ZM1121.1 -60.375L1143.6 23L1231.8 350L1070 132.625L1121.1 -60.375ZM1121 -60.625L1069.8 132.375L1038.3 59.375L975.1 -87L1121 -60.625ZM974.9 -86.75L1069.7 132.5L1038.7 137.25L921.2 155L974.9 -86.75ZM886.3 -75.75L974.7 -87L921.1 154.625L886.3 -75.75ZM921.1 155.5L1094.1 468.75L887.9 421.875L921.1 155.5ZM887.9 422.125L1094.2 469L990.7 649.375L933 750.125L887.9 422.125ZM932.9 751L987.4 959.125L913.7 1096L886.4 1146.5L932.9 751ZM886.5 1146.88L967.5 996.75L987.6 959.5L996.6 1029.5L1007.7 1115.75L886.5 1146.88ZM1007.8 1115.62L1002.9 1077.38L987.7 959.5L1024.2 1004.12L1070.5 1060.62L1007.8 1115.62ZM987.7 959.25L1032.9 926.625L1057.9 908.625L1060.5 939.375L1070.6 1060.25L987.7 959.25ZM1070.7 1060.38L1058.1 908.75L1069.5 919L1145.6 987.375L1070.7 1060.38ZM1070.8 1060.62L1084.5 1047.25L1145.7 987.625L1163.8 1144.88L1070.8 1060.62ZM1164.1 1145L1146 987.75L1192.3 1040.88L1243.8 1100.12L1164.1 1145ZM1243.9 1099.88L1146.1 987.5L1256.5 976.25L1243.9 1099.88ZM1256.7 976.25L1289.5 979.75L1343.4 985.625L1316.2 1016.88L1244 1099.88L1256.7 976.25ZM1244.2 1100L1343.6 985.75L1348.9 1019.25L1368.9 1145L1244.2 1100ZM1369 1144.75L1343.8 985.625H1343.9V985.5L1450.3 923.75L1369 1144.75ZM1476.2 1053.12L1476.5 1053.25L1369.2 1144.88L1450.4 924L1476.5 1053.12H1476.2ZM1476.7 1052.5L1450.6 923.625L1505.7 798.375L1476.7 1052.5ZM1506 797.75L1625.4 786.75L1628.3 786.5L1535.5 949.5L1476.8 1052.62L1506 797.75ZM1628.5 786.75L1636.4 1039.88L1476.9 1053L1628.5 786.75ZM1477.2 1053.25L1636 1040.12H1636.4V1040.38L1636.5 1040.25L1639.1 1047L1675.9 1144.88L1477.2 1053.25ZM1676 1144.75L1636.6 1040L1655.1 1011.62L1701.2 940.875L1676 1144.75ZM1676.2 1145L1677.7 1132.62L1701.4 940.625L1718 958L1835 1080.38L1676.2 1145ZM1835.1 1080.12L1701.6 940.375L1884.1 724.75L1835.1 1080.12ZM1761.2 673.875L1751.4 669.875L1778.3 634L1834.3 559.375L1884 724.25L1761.2 673.875ZM1883.9 723L1834.5 559.125L1835.3 388.75L1883.9 723ZM1835.2 386.625L1819.2 304.125L1771.2 55.875L1885.7 110.25L1835.2 386.625Z" fill="white"/>
</g>
</g>
</svg>
