<svg width="1860" height="600" viewBox="0 0 1860 600" fill="none" xmlns="http://www.w3.org/2000/svg">
<mask id="mask0_267_2408" style="mask-type:alpha" maskUnits="userSpaceOnUse" x="-15" y="-34" width="1011" height="966">
<rect x="-15" y="-33.2142" width="1011" height="964.286" fill="#A2D67E"/>
</mask>
<g mask="url(#mask0_267_2408)">
<path d="M818.9 192.321L892 48L818.9 192.321Z" fill="#DFF2D8"/>
<path d="M1007 94.6072L1006.9 94.3929V94.2857L944.7 -58.0714L944.8 -58.1786H944.7L944.6 -58.2857L944.5 -58.1786L472.7 -74.7857H472.6V-75V-74.8929H472.5V-74.7857H471.8L472.1 -74.6786L242.2 -52.1786L242.1 -52.3929L242 -52.1786L96 -74.7857H95.9L95.8 -75V-74.7857H95.7L7.1 -65.1429L41.9 132.964H41.8L41.9 133.071V133.179L8.7 361.5V361.607V361.714L53.7 642.857L53.6 642.75L53.7 643.071H53.6L53.7 643.179L53.6 643.393H53.7L7.1 983.143L7 983.357H7.1V983.679L7.3 983.357L128.6 956.679V956.786L128.7 956.679H128.8L191.5 909.536L191.6 909.429L191.7 909.536V909.429L284.9 981.75V981.857H285L285.2 981.964V981.75L364.9 943.179V943.286L365 943.179L365.1 943.286V943.179L489.9 981.75L489.8 981.964L490 981.857V982.072L490.1 981.857H490.2V981.75L597.7 903V903.214L597.8 903L597.9 903.321L598 902.893L797 981.643V981.75H797.1L797.2 981.964V981.75H797.3L797.2 981.643L956.2 926.143L956.3 926.25V926.143H956.4L956.3 926.036L1005.3 621.107H1005.4L1005.3 621L1005.4 620.893H1005.3V620.679L1005.2 620.786L956.2 332.143V331.929L1006.8 94.5L1007 94.6072ZM944.5 -57.8571L1006.6 94.1786L997.6 90.5357L892.3 47.6786L892.1 47.5714L892.2 47.4643L924.2 -17.0357L944.5 -57.8571ZM944.4 -58.0714L892 47.5714H891.9L784.9 16.3929L473.5 -74.5714L944.4 -58.0714ZM956 331.714L785.3 258.536L818.9 192.321L785.3 258.643L892.1 47.7857L892 48L956 331.714ZM955.3 478.929L785.5 258.857L850.1 286.5L956.1 331.929L955.3 478.929ZM822.3 806.143L757.6 891.214L749.7 674.571L800.2 766.179L822.3 806.143ZM266.8 846.107L252.8 835.393L179.3 778.822L286.5 770.786L278.6 801.107L266.8 846.107ZM178.8 778.714L108.6 822V821.893L54.1 643.714L102.6 696.214L178.8 778.714ZM54.1 643.286L215.1 598.929L234.2 593.679L178.9 778.5L54.1 643.286ZM785.2 258.321L784.9 258.107L785 258.429L583.6 163.607L891.8 47.8929L785.2 258.321ZM866.6 554.143L872.1 574.071L679.3 482.464L785.2 258.964L866.6 554.143ZM785.1 258.643L758.9 314.036L679.2 482.143L583.6 163.821L785.1 258.643ZM679 482.464L606.1 547.393L565.3 583.714L572.5 389.464L574.8 328.286L679 482.464ZM603.8 231.964L678.8 481.714L574.8 327.857L578.4 260.679L583.5 164.25L603.8 231.964ZM574.6 327.536V327.75L353.4 300.429L583.3 163.821L574.6 327.536ZM574.6 327.964L572 397.179L565.1 583.5V583.607L564.2 582.429L353.3 300.643L574.6 327.964ZM565 583.822L393.5 722.143L383.9 622.286L353.1 300.75L565 583.822ZM352.9 300.75L313 465.857L307.9 486.857V486.75V486.964L215.6 401.893L232.1 389.679L352.9 300.75ZM307.8 487.286L234.4 593.25L234 589.286L215.5 402.214L307.8 487.286ZM286.5 770.572L275.3 771.429L179.2 778.607L208.4 680.893L234.4 593.893L286.5 770.572ZM234.5 593.571L274.2 536.25L307.9 487.714L286.6 770.143L234.5 593.571ZM291.9 701.25L308 487.714L393.3 722.25L303.6 762.857L286.7 770.464L291.9 701.25ZM393.3 721.5L308.1 487.286L319.3 441L353 301.071L393.3 721.5ZM352.8 300.536L215.5 401.679L204 267.107L191 114L233.4 162.857L352.9 300.429L352.8 300.536ZM211 351.964L215.2 401.464L42.2 133.071L135.6 120.964L190.7 113.786L211 351.964ZM215.3 402.214L234.3 593.464L54.1 643.071L215.3 402.214ZM286.6 771.107L286.7 771.322V770.893L345.7 813.75L377.3 836.679L266.9 846.322L286.6 771.107ZM286.8 770.679L393.3 722.572L392.4 729.107L377.5 836.464L286.8 770.679ZM390 748.179L393.5 722.786L393.6 723.107V722.786L464.5 844.607L396.1 838.286L377.7 836.571L390 748.179ZM393.6 722.357L521.1 619.5L565 584.143L475.1 817.5L464.7 844.5L393.6 722.357ZM464.9 844.5L549.4 625.179L565.1 584.357L571.4 791.464L498 828L464.9 844.5ZM565.3 584.25L570.9 593.357L626.8 683.679L571.6 791.143L565.3 584.25ZM565.3 583.929L679 482.786L626.9 683.464L565.3 583.929ZM631.2 667.607L679.2 482.786L688 506.786L749.4 673.929L708.3 677.143L627 683.571L631.2 667.607ZM720.1 593.464L679.4 482.679L872.1 574.286L749.7 673.929V673.822L749.6 673.929L720.1 593.464ZM749.7 674.036L872.1 574.5L822.4 805.821L749.7 674.036ZM872.3 574.393L974.7 610.393L1005 621L822.6 805.714L872.3 574.393ZM872.3 573.964L785.4 259.071L815.7 298.286L955.2 479.143L872.3 573.964ZM874.2 42.5357L891.7 47.6786L583.5 163.393H583.4L583.3 162.964V163.179L485.3 -47.4643L472.8 -74.5714L874.2 42.5357ZM472.6 -74.4643L527.8 44.25L583.3 163.5H583.2L353.3 300.214L395.2 168.536L472.6 -74.4643ZM472.4 -74.5714L353.1 300V299.893L353 300.107L342.8 267.75L242.3 -51.9643L472.4 -74.5714ZM242.1 -51.75L264.6 19.7143L352.8 300L191 113.679L242.1 -51.75ZM242 -51.9643L190.8 113.464L159.3 50.8929L96.1 -74.5714L242 -51.9643ZM95.9 -74.3571L190.7 113.571L159.7 117.643L42.2 132.857L95.9 -74.3571ZM7.3 -64.9286L95.7 -74.5714L42.1 132.536L7.3 -64.9286ZM42.1 133.286L215.1 401.786L8.9 361.607L42.1 133.286ZM8.9 361.821L215.2 402L111.7 556.607L54 642.964L8.9 361.821ZM53.9 643.714L108.4 822.107L34.7 939.429L7.4 982.714L53.9 643.714ZM7.5 983.036L88.5 854.357L108.6 822.429L117.6 882.429L128.7 956.357L7.5 983.036ZM128.8 956.25L123.9 923.464L108.7 822.429L145.2 860.679L191.5 909.107L128.8 956.25ZM108.7 822.214L153.9 794.25L178.9 778.822L181.5 805.179L191.6 908.786L108.7 822.214ZM191.7 908.893L179.1 778.929L190.5 787.714L266.6 846.322L191.7 908.893ZM191.8 909.107L205.5 897.643L266.7 846.536L284.8 981.322L191.8 909.107ZM285.1 981.429L267 846.643L313.3 892.179L364.8 942.964L285.1 981.429ZM364.9 942.75L267.1 846.429L377.5 836.786L364.9 942.75ZM377.7 836.786L410.5 839.786L464.4 844.821L437.2 871.607L365 942.75L377.7 836.786ZM365.2 942.857L464.6 844.929L469.9 873.643L489.9 981.429L365.2 942.857ZM490 981.214L464.8 844.821H464.9V844.714L571.3 791.786L490 981.214ZM597.2 902.679L597.5 902.786L490.2 981.322L571.4 792L597.5 902.679H597.2ZM597.7 902.143L571.6 791.679L626.7 684.321L597.7 902.143ZM627 683.786L746.4 674.357L749.3 674.143L656.5 813.857L597.8 902.25L627 683.786ZM749.5 674.357L757.4 891.322L597.9 902.572L749.5 674.357ZM598.2 902.786L757 891.536H757.4V891.75L757.5 891.643L760.1 897.429L796.9 981.322L598.2 902.786ZM797 981.214L757.6 891.429L776.1 867.107L822.2 806.464L797 981.214ZM797.2 981.429L798.7 970.822L822.4 806.25L839 821.143L956 926.036L797.2 981.429ZM956.1 925.821L822.6 806.036L1005.1 621.214L956.1 925.821ZM882.2 577.607L872.4 574.179L899.3 543.429L955.3 479.464L1005 620.786L882.2 577.607ZM1004.9 619.714L955.5 479.25L956.3 333.214L1004.9 619.714ZM956.2 331.393L940.2 260.679L892.2 47.8929L1006.7 94.5L956.2 331.393Z" fill="#DFF2D8"/>
</g>
<mask id="mask1_267_2408" style="mask-type:alpha" maskUnits="userSpaceOnUse" x="864" y="-34" width="1011" height="966">
<rect x="864" y="-33.2142" width="1011" height="964.286" fill="#A2D67E"/>
</mask>
<g mask="url(#mask1_267_2408)">
<path d="M1697.9 192.321L1771 48L1697.9 192.321Z" fill="#DFF2D8"/>
<path d="M1886 94.6072L1885.9 94.3929V94.2857L1823.7 -58.0714L1823.8 -58.1786H1823.7L1823.6 -58.2857L1823.5 -58.1786L1351.7 -74.7857H1351.6V-75V-74.8929H1351.5V-74.7857H1350.8L1351.1 -74.6786L1121.2 -52.1786L1121.1 -52.3929L1121 -52.1786L975 -74.7857H974.9L974.8 -75V-74.7857H974.7L886.1 -65.1429L920.9 132.964H920.8L920.9 133.071V133.179L887.7 361.5V361.607V361.714L932.7 642.857L932.6 642.75L932.7 643.071H932.6L932.7 643.179L932.6 643.393H932.7L886.1 983.143L886 983.357H886.1V983.679L886.3 983.357L1007.6 956.679V956.786L1007.7 956.679H1007.8L1070.5 909.536L1070.6 909.429L1070.7 909.536V909.429L1163.9 981.75V981.857H1164L1164.2 981.964V981.75L1243.9 943.179V943.286L1244 943.179L1244.1 943.286V943.179L1368.9 981.75L1368.8 981.964L1369 981.857V982.072L1369.1 981.857H1369.2V981.75L1476.7 903V903.214L1476.8 903L1476.9 903.321L1477 902.893L1676 981.643V981.75H1676.1L1676.2 981.964V981.75H1676.3L1676.2 981.643L1835.2 926.143L1835.3 926.25V926.143H1835.4L1835.3 926.036L1884.3 621.107H1884.4L1884.3 621L1884.4 620.893H1884.3V620.679L1884.2 620.786L1835.2 332.143V331.929L1885.8 94.5L1886 94.6072ZM1823.5 -57.8571L1885.6 94.1786L1876.6 90.5357L1771.3 47.6786L1771.1 47.5714L1771.2 47.4643L1803.2 -17.0357L1823.5 -57.8571ZM1823.4 -58.0714L1771 47.5714H1770.9L1663.9 16.3929L1352.5 -74.5714L1823.4 -58.0714ZM1835 331.714L1664.3 258.536L1697.9 192.321L1664.3 258.643L1771.1 47.7857L1771 48L1835 331.714ZM1834.3 478.929L1664.5 258.857L1729.1 286.5L1835.1 331.929L1834.3 478.929ZM1701.3 806.143L1636.6 891.214L1628.7 674.571L1679.2 766.179L1701.3 806.143ZM1145.8 846.107L1131.8 835.393L1058.3 778.822L1165.5 770.786L1157.6 801.107L1145.8 846.107ZM1057.8 778.714L987.6 822V821.893L933.1 643.714L981.6 696.214L1057.8 778.714ZM933.1 643.286L1094.1 598.929L1113.2 593.679L1057.9 778.5L933.1 643.286ZM1664.2 258.321L1663.9 258.107L1664 258.429L1462.6 163.607L1770.8 47.8929L1664.2 258.321ZM1745.6 554.143L1751.1 574.071L1558.3 482.464L1664.2 258.964L1745.6 554.143ZM1664.1 258.643L1637.9 314.036L1558.2 482.143L1462.6 163.821L1664.1 258.643ZM1558 482.464L1485.1 547.393L1444.3 583.714L1451.5 389.464L1453.8 328.286L1558 482.464ZM1482.8 231.964L1557.8 481.714L1453.8 327.857L1457.4 260.679L1462.5 164.25L1482.8 231.964ZM1453.6 327.536V327.75L1232.4 300.429L1462.3 163.821L1453.6 327.536ZM1453.6 327.964L1451 397.179L1444.1 583.5V583.607L1443.2 582.429L1232.3 300.643L1453.6 327.964ZM1444 583.822L1272.5 722.143L1262.9 622.286L1232.1 300.75L1444 583.822ZM1231.9 300.75L1192 465.857L1186.9 486.857V486.75V486.964L1094.6 401.893L1111.1 389.679L1231.9 300.75ZM1186.8 487.286L1113.4 593.25L1113 589.286L1094.5 402.214L1186.8 487.286ZM1165.5 770.572L1154.3 771.429L1058.2 778.607L1087.4 680.893L1113.4 593.893L1165.5 770.572ZM1113.5 593.571L1153.2 536.25L1186.9 487.714L1165.6 770.143L1113.5 593.571ZM1170.9 701.25L1187 487.714L1272.3 722.25L1182.6 762.857L1165.7 770.464L1170.9 701.25ZM1272.3 721.5L1187.1 487.286L1198.3 441L1232 301.071L1272.3 721.5ZM1231.8 300.536L1094.5 401.679L1083 267.107L1070 114L1112.4 162.857L1231.9 300.429L1231.8 300.536ZM1090 351.964L1094.2 401.464L921.2 133.071L1014.6 120.964L1069.7 113.786L1090 351.964ZM1094.3 402.214L1113.3 593.464L933.1 643.071L1094.3 402.214ZM1165.6 771.107L1165.7 771.322V770.893L1224.7 813.75L1256.3 836.679L1145.9 846.322L1165.6 771.107ZM1165.8 770.679L1272.3 722.572L1271.4 729.107L1256.5 836.464L1165.8 770.679ZM1269 748.179L1272.5 722.786L1272.6 723.107V722.786L1343.5 844.607L1275.1 838.286L1256.7 836.571L1269 748.179ZM1272.6 722.357L1400.1 619.5L1444 584.143L1354.1 817.5L1343.7 844.5L1272.6 722.357ZM1343.9 844.5L1428.4 625.179L1444.1 584.357L1450.4 791.464L1377 828L1343.9 844.5ZM1444.3 584.25L1449.9 593.357L1505.8 683.679L1450.6 791.143L1444.3 584.25ZM1444.3 583.929L1558 482.786L1505.9 683.464L1444.3 583.929ZM1510.2 667.607L1558.2 482.786L1567 506.786L1628.4 673.929L1587.3 677.143L1506 683.571L1510.2 667.607ZM1599.1 593.464L1558.4 482.679L1751.1 574.286L1628.7 673.929V673.822L1628.6 673.929L1599.1 593.464ZM1628.7 674.036L1751.1 574.5L1701.4 805.821L1628.7 674.036ZM1751.3 574.393L1853.7 610.393L1884 621L1701.6 805.714L1751.3 574.393ZM1751.3 573.964L1664.4 259.071L1694.7 298.286L1834.2 479.143L1751.3 573.964ZM1753.2 42.5357L1770.7 47.6786L1462.5 163.393H1462.4L1462.3 162.964V163.179L1364.3 -47.4643L1351.8 -74.5714L1753.2 42.5357ZM1351.6 -74.4643L1406.8 44.25L1462.3 163.5H1462.2L1232.3 300.214L1274.2 168.536L1351.6 -74.4643ZM1351.4 -74.5714L1232.1 300V299.893L1232 300.107L1221.8 267.75L1121.3 -51.9643L1351.4 -74.5714ZM1121.1 -51.75L1143.6 19.7143L1231.8 300L1070 113.679L1121.1 -51.75ZM1121 -51.9643L1069.8 113.464L1038.3 50.8929L975.1 -74.5714L1121 -51.9643ZM974.9 -74.3571L1069.7 113.571L1038.7 117.643L921.2 132.857L974.9 -74.3571ZM886.3 -64.9286L974.7 -74.5714L921.1 132.536L886.3 -64.9286ZM921.1 133.286L1094.1 401.786L887.9 361.607L921.1 133.286ZM887.9 361.821L1094.2 402L990.7 556.607L933 642.964L887.9 361.821ZM932.9 643.714L987.4 822.107L913.7 939.429L886.4 982.714L932.9 643.714ZM886.5 983.036L967.5 854.357L987.6 822.429L996.6 882.429L1007.7 956.357L886.5 983.036ZM1007.8 956.25L1002.9 923.464L987.7 822.429L1024.2 860.679L1070.5 909.107L1007.8 956.25ZM987.7 822.214L1032.9 794.25L1057.9 778.822L1060.5 805.179L1070.6 908.786L987.7 822.214ZM1070.7 908.893L1058.1 778.929L1069.5 787.714L1145.6 846.322L1070.7 908.893ZM1070.8 909.107L1084.5 897.643L1145.7 846.536L1163.8 981.322L1070.8 909.107ZM1164.1 981.429L1146 846.643L1192.3 892.179L1243.8 942.964L1164.1 981.429ZM1243.9 942.75L1146.1 846.429L1256.5 836.786L1243.9 942.75ZM1256.7 836.786L1289.5 839.786L1343.4 844.821L1316.2 871.607L1244 942.75L1256.7 836.786ZM1244.2 942.857L1343.6 844.929L1348.9 873.643L1368.9 981.429L1244.2 942.857ZM1369 981.214L1343.8 844.821H1343.9V844.714L1450.3 791.786L1369 981.214ZM1476.2 902.679L1476.5 902.786L1369.2 981.322L1450.4 792L1476.5 902.679H1476.2ZM1476.7 902.143L1450.6 791.679L1505.7 684.321L1476.7 902.143ZM1506 683.786L1625.4 674.357L1628.3 674.143L1535.5 813.857L1476.8 902.25L1506 683.786ZM1628.5 674.357L1636.4 891.322L1476.9 902.572L1628.5 674.357ZM1477.2 902.786L1636 891.536H1636.4V891.75L1636.5 891.643L1639.1 897.429L1675.9 981.322L1477.2 902.786ZM1676 981.214L1636.6 891.429L1655.1 867.107L1701.2 806.464L1676 981.214ZM1676.2 981.429L1677.7 970.822L1701.4 806.25L1718 821.143L1835 926.036L1676.2 981.429ZM1835.1 925.821L1701.6 806.036L1884.1 621.214L1835.1 925.821ZM1761.2 577.607L1751.4 574.179L1778.3 543.429L1834.3 479.464L1884 620.786L1761.2 577.607ZM1883.9 619.714L1834.5 479.25L1835.3 333.214L1883.9 619.714ZM1835.2 331.393L1819.2 260.679L1771.2 47.8929L1885.7 94.5L1835.2 331.393Z" fill="#DFF2D8"/>
</g>
</svg>
