<svg width="16" height="16" viewBox="0 0 16 16" fill="none" xmlns="http://www.w3.org/2000/svg">
<path d="M12.6351 0H3.36491C2.5895 0 1.95866 0.630844 1.95866 1.40625V14.5938C1.95866 15.3692 2.5895 16 3.36491 16H12.6351C13.4105 16 14.0413 15.3692 14.0413 14.5938V1.40625C14.0413 0.630844 13.4104 0 12.6351 0ZM3.86781 2.76094C3.86781 2.55469 4.03656 2.38594 4.24281 2.38594H11.8826C12.0888 2.38594 12.2576 2.55469 12.2576 2.76094V4.19059C12.2576 4.39684 12.0889 4.56559 11.8826 4.56559H4.24281C4.03656 4.56559 3.86781 4.39684 3.86781 4.19059V2.76094ZM8.43834 7.88734H7.56169C7.30278 7.88734 7.09294 7.67747 7.09294 7.41859V6.78162C7.09294 6.52275 7.30281 6.31287 7.56169 6.31287H8.43834C8.69722 6.31287 8.90709 6.52275 8.90709 6.78162V7.41859C8.90709 7.67747 8.69722 7.88734 8.43834 7.88734ZM8.90709 9.80106V10.438C8.90709 10.6969 8.69722 10.9068 8.43834 10.9068H7.56169C7.30281 10.9068 7.09294 10.6969 7.09294 10.438V9.80106C7.09294 9.54216 7.30278 9.33231 7.56169 9.33231H8.43834C8.69722 9.33231 8.90709 9.54219 8.90709 9.80106ZM5.55647 13.4575C5.55647 13.7163 5.34659 13.9262 5.08772 13.9262H4.21106C3.95219 13.9262 3.74231 13.7163 3.74231 13.4575V12.8205C3.74231 12.5616 3.95219 12.3518 4.21106 12.3518H5.08772C5.34659 12.3518 5.55647 12.5616 5.55647 12.8205V13.4575ZM5.55647 10.438C5.55647 10.6969 5.34659 10.9068 5.08772 10.9068H4.21106C3.95219 10.9068 3.74231 10.6969 3.74231 10.438V9.80106C3.74231 9.54219 3.95219 9.33231 4.21106 9.33231H5.08772C5.34659 9.33231 5.55647 9.54219 5.55647 9.80106V10.438ZM5.55647 7.41859C5.55647 7.67747 5.34659 7.88734 5.08772 7.88734H4.21106C3.95219 7.88734 3.74231 7.67747 3.74231 7.41859V6.78162C3.74231 6.52275 3.95219 6.31287 4.21106 6.31287H5.08772C5.34659 6.31287 5.55647 6.52275 5.55647 6.78162V7.41859ZM12.2576 13.4575C12.2576 13.7163 12.0478 13.9262 11.7889 13.9262H7.56166C7.30278 13.9262 7.09291 13.7163 7.09291 13.4575V12.8205C7.09291 12.5616 7.30275 12.3518 7.56166 12.3518H11.7889C12.0478 12.3518 12.2576 12.5616 12.2576 12.8205V13.4575ZM12.2576 10.438C12.2576 10.6969 12.0478 10.9068 11.7889 10.9068H10.9122C10.6533 10.9068 10.4435 10.6969 10.4435 10.438V9.80106C10.4435 9.54219 10.6533 9.33231 10.9122 9.33231H11.7889C12.0478 9.33231 12.2576 9.54219 12.2576 9.80106V10.438ZM12.2576 7.41859C12.2576 7.67747 12.0478 7.88734 11.7889 7.88734H10.9122C10.6533 7.88734 10.4435 7.67747 10.4435 7.41859V6.78162C10.4435 6.52275 10.6533 6.31287 10.9122 6.31287H11.7889C12.0478 6.31287 12.2576 6.52275 12.2576 6.78162V7.41859Z" fill="black"/>
</svg>
