<svg width="34" height="34" viewBox="0 0 34 34" fill="none" xmlns="http://www.w3.org/2000/svg">
<path d="M29.0417 18.4166H21.9583C21.2069 18.4166 20.4862 18.7151 19.9549 19.2465C19.4235 19.7778 19.125 20.4985 19.125 21.25V28.3333C19.1284 28.9322 19.3215 29.5146 19.6765 29.997C20.0316 30.4793 20.5304 30.8367 21.1013 31.0179L20.7471 31.372C20.6807 31.4379 20.628 31.5162 20.592 31.6026C20.5561 31.6889 20.5376 31.7815 20.5376 31.875C20.5376 31.9685 20.5561 32.061 20.592 32.1474C20.628 32.2337 20.6807 32.312 20.7471 32.3779C20.8129 32.4443 20.8913 32.497 20.9776 32.5329C21.0639 32.5689 21.1565 32.5874 21.25 32.5874C21.3435 32.5874 21.4361 32.5689 21.5224 32.5329C21.6087 32.497 21.6871 32.4443 21.7529 32.3779L22.9571 31.1666H28.0429L29.2471 32.3779C29.3129 32.4443 29.3913 32.497 29.4776 32.5329C29.5639 32.5689 29.6565 32.5874 29.75 32.5874C29.8435 32.5874 29.9361 32.5689 30.0224 32.5329C30.1087 32.497 30.1871 32.4443 30.2529 32.3779C30.3193 32.312 30.372 32.2337 30.408 32.1474C30.4439 32.061 30.4624 31.9685 30.4624 31.875C30.4624 31.7815 30.4439 31.6889 30.408 31.6026C30.372 31.5162 30.3193 31.4379 30.2529 31.372L29.8987 31.0179C30.4696 30.8367 30.9684 30.4793 31.3235 29.997C31.6785 29.5146 31.8716 28.9322 31.875 28.3333V21.25C31.875 20.4985 31.5765 19.7778 31.0451 19.2465C30.5138 18.7151 29.7931 18.4166 29.0417 18.4166ZM21.9583 21.9583C21.9583 21.7704 22.033 21.5903 22.1658 21.4574C22.2986 21.3246 22.4788 21.25 22.6667 21.25H28.3333C28.5212 21.25 28.7014 21.3246 28.8342 21.4574C28.967 21.5903 29.0417 21.7704 29.0417 21.9583V24.7916C29.0417 24.9795 28.967 25.1597 28.8342 25.2925C28.7014 25.4253 28.5212 25.5 28.3333 25.5H22.6667C22.4788 25.5 22.2986 25.4253 22.1658 25.2925C22.033 25.1597 21.9583 24.9795 21.9583 24.7916V21.9583ZM23.0279 29.3958C22.7461 29.3958 22.4759 29.2839 22.2766 29.0846C22.0774 28.8853 21.9654 28.6151 21.9654 28.3333C21.9654 28.0515 22.0774 27.7812 22.2766 27.582C22.4759 27.3827 22.7461 27.2708 23.0279 27.2708C23.3097 27.2708 23.58 27.3827 23.7792 27.582C23.9785 27.7812 24.0904 28.0515 24.0904 28.3333C24.0904 28.6151 23.9785 28.8853 23.7792 29.0846C23.58 29.2839 23.3097 29.3958 23.0279 29.3958ZM26.9167 28.3333C26.9157 28.195 26.9422 28.0579 26.9944 27.9299C27.0467 27.8019 27.1238 27.6855 27.2212 27.5874C27.3186 27.4893 27.4345 27.4115 27.5622 27.3583C27.6898 27.3052 27.8267 27.2779 27.965 27.2779C28.174 27.2765 28.3788 27.3372 28.5533 27.4523C28.7278 27.5674 28.8641 27.7317 28.9451 27.9245C29.0261 28.1172 29.048 28.3296 29.0081 28.5348C28.9682 28.74 28.8682 28.9287 28.7209 29.077C28.5736 29.2254 28.3855 29.3266 28.1806 29.3679C27.9757 29.4092 27.7631 29.3887 27.5698 29.309C27.3766 29.2294 27.2113 29.0941 27.095 28.9204C26.9788 28.7467 26.9167 28.5423 26.9167 28.3333Z" fill="#59B35B"/>
<path d="M21.9583 17H24.2675C24.6081 15.6087 24.784 14.1823 24.7917 12.75C24.7917 9.74417 23.5976 6.86149 21.4722 4.73608C19.3468 2.61067 16.4641 1.41663 13.4583 1.41663C10.4525 1.41663 7.56987 2.61067 5.44446 4.73608C3.31904 6.86149 2.125 9.74417 2.125 12.75C2.125 23.5875 12.5729 32.0733 13.0192 32.4275C13.1442 32.5263 13.2989 32.58 13.4583 32.58C13.6177 32.58 13.7724 32.5263 13.8975 32.4275C15.2666 31.2882 16.541 30.0398 17.7083 28.6945C17.7013 28.5742 17.7013 28.4536 17.7083 28.3333V21.25C17.7083 20.1228 18.1561 19.0418 18.9531 18.2448C19.7502 17.4477 20.8312 17 21.9583 17ZM13.4583 18.4166C12.3376 18.4166 11.242 18.0843 10.3101 17.4616C9.37822 16.839 8.65191 15.9539 8.22302 14.9185C7.79412 13.8831 7.6819 12.7437 7.90055 11.6444C8.1192 10.5452 8.6589 9.53552 9.45139 8.74302C10.2439 7.95052 11.2536 7.41083 12.3528 7.19218C13.452 6.97353 14.5914 7.08575 15.6269 7.51464C16.6623 7.94354 17.5473 8.66985 18.17 9.60173C18.7927 10.5336 19.125 11.6292 19.125 12.75C19.125 14.2529 18.528 15.6942 17.4653 16.7569C16.4026 17.8196 14.9612 18.4166 13.4583 18.4166Z" fill="#59B35B"/>
<path d="M23.375 22.6666H27.625V24.0833H23.375V22.6666Z" fill="#59B35B"/>
</svg>
