<svg width="34" height="34" viewBox="0 0 34 34" fill="none" xmlns="http://www.w3.org/2000/svg">
<path d="M5.04688 27.957C6.69727 27.957 8.03516 26.6191 8.03516 24.9688H2.05859C2.05859 26.6191 3.39648 27.957 5.04688 27.957Z" fill="#59B35B"/>
<path d="M13.0156 27.957C14.666 27.957 16.0039 26.6191 16.0039 24.9688H10.0273C10.0273 26.6191 11.3652 27.957 13.0156 27.957Z" fill="#59B35B"/>
<path d="M20.9844 27.957C22.6348 27.957 23.9727 26.6191 23.9727 24.9688H17.9961C17.9961 26.6191 19.334 27.957 20.9844 27.957Z" fill="#59B35B"/>
<path d="M28.9531 27.957C30.6035 27.957 31.9414 26.6191 31.9414 24.9688H25.9648C25.9648 26.6191 27.3027 27.957 28.9531 27.957Z" fill="#59B35B"/>
<path d="M33.0039 6.04297H0.996094C0.44552 6.04297 0 6.48849 0 7.03906V21.9805C0 22.531 0.44552 22.9766 0.996094 22.9766H33.0039C33.5545 22.9766 34 22.531 34 21.9805V7.03906C34 6.48849 33.5545 6.04297 33.0039 6.04297ZM6.04297 18.9922C6.04297 19.5428 5.59745 19.9883 5.04688 19.9883C4.4963 19.9883 4.05078 19.5428 4.05078 18.9922V10.0273C4.05078 9.47677 4.4963 9.03125 5.04688 9.03125C5.59745 9.03125 6.04297 9.47677 6.04297 10.0273V18.9922ZM10.0273 18.9922C10.0273 19.5428 9.58182 19.9883 9.03125 19.9883C8.48068 19.9883 8.03516 19.5428 8.03516 18.9922V10.0273C8.03516 9.47677 8.48068 9.03125 9.03125 9.03125C9.58182 9.03125 10.0273 9.47677 10.0273 10.0273V18.9922ZM14.0117 18.9922C14.0117 19.5428 13.5662 19.9883 13.0156 19.9883C12.4651 19.9883 12.0195 19.5428 12.0195 18.9922V10.0273C12.0195 9.47677 12.4651 9.03125 13.0156 9.03125C13.5662 9.03125 14.0117 9.47677 14.0117 10.0273V18.9922ZM17.9961 18.9922C17.9961 19.5428 17.5506 19.9883 17 19.9883C16.4494 19.9883 16.0039 19.5428 16.0039 18.9922V10.0273C16.0039 9.47677 16.4494 9.03125 17 9.03125C17.5506 9.03125 17.9961 9.47677 17.9961 10.0273V18.9922ZM21.9805 18.9922C21.9805 19.5428 21.5349 19.9883 20.9844 19.9883C20.4338 19.9883 19.9883 19.5428 19.9883 18.9922V10.0273C19.9883 9.47677 20.4338 9.03125 20.9844 9.03125C21.5349 9.03125 21.9805 9.47677 21.9805 10.0273V18.9922ZM25.9648 18.9922C25.9648 19.5428 25.5193 19.9883 24.9688 19.9883C24.4182 19.9883 23.9727 19.5428 23.9727 18.9922V10.0273C23.9727 9.47677 24.4182 9.03125 24.9688 9.03125C25.5193 9.03125 25.9648 9.47677 25.9648 10.0273V18.9922ZM29.9492 18.9922C29.9492 19.5428 29.5037 19.9883 28.9531 19.9883C28.4026 19.9883 27.957 19.5428 27.957 18.9922V10.0273C27.957 9.47677 28.4026 9.03125 28.9531 9.03125C29.5037 9.03125 29.9492 9.47677 29.9492 10.0273V18.9922Z" fill="#59B35B"/>
</svg>
