<svg width="32" height="32" viewBox="0 0 32 32" fill="none" xmlns="http://www.w3.org/2000/svg">
<path d="M10 11.5C10 11.2033 10.088 10.9133 10.2528 10.6666C10.4176 10.42 10.6519 10.2277 10.926 10.1142C11.2001 10.0006 11.5017 9.97094 11.7926 10.0288C12.0836 10.0867 12.3509 10.2296 12.5607 10.4393C12.7704 10.6491 12.9133 10.9164 12.9712 11.2074C13.0291 11.4983 12.9994 11.7999 12.8858 12.074C12.7723 12.3481 12.58 12.5824 12.3334 12.7472C12.0867 12.912 11.7967 13 11.5 13C11.1022 13 10.7207 12.842 10.4393 12.5607C10.158 12.2794 10 11.8978 10 11.5ZM20.5 19C20.2033 19 19.9133 19.088 19.6667 19.2528C19.42 19.4176 19.2277 19.6519 19.1142 19.926C19.0007 20.2001 18.9709 20.5017 19.0288 20.7926C19.0867 21.0836 19.2296 21.3509 19.4393 21.5607C19.6491 21.7704 19.9164 21.9133 20.2074 21.9712C20.4983 22.0291 20.7999 21.9993 21.074 21.8858C21.3481 21.7723 21.5824 21.58 21.7472 21.3334C21.912 21.0867 22 20.7967 22 20.5C22 20.1022 21.842 19.7206 21.5607 19.4393C21.2794 19.158 20.8978 19 20.5 19ZM30 16C30 18.7689 29.1789 21.4757 27.6406 23.778C26.1022 26.0803 23.9157 27.8747 21.3576 28.9343C18.7994 29.9939 15.9845 30.2712 13.2687 29.731C10.553 29.1908 8.05845 27.8574 6.10051 25.8995C4.14258 23.9416 2.80921 21.447 2.26901 18.7313C1.72882 16.0155 2.00607 13.2006 3.06569 10.6424C4.12532 8.08427 5.91973 5.89777 8.22202 4.35943C10.5243 2.82109 13.2311 2 16 2C19.713 2 23.274 3.475 25.8995 6.1005C28.525 8.72601 30 12.287 30 16ZM8.00001 11.5C8.00001 12.1922 8.20528 12.8689 8.58986 13.4445C8.97445 14.0201 9.52107 14.4687 10.1606 14.7336C10.8002 14.9985 11.5039 15.0678 12.1828 14.9327C12.8618 14.7977 13.4854 14.4644 13.9749 13.9749C14.4644 13.4854 14.7977 12.8617 14.9328 12.1828C15.0678 11.5039 14.9985 10.8001 14.7336 10.1606C14.4687 9.52107 14.0201 8.97444 13.4445 8.58986C12.8689 8.20527 12.1922 8 11.5 8C10.5717 8 9.68151 8.36875 9.02513 9.02513C8.36876 9.6815 8.00001 10.5717 8.00001 11.5ZM22.71 10.71C22.8032 10.6168 22.8772 10.5061 22.9277 10.3842C22.9781 10.2624 23.0041 10.1319 23.0041 10C23.0041 9.86814 22.9781 9.73757 22.9277 9.61575C22.8772 9.49393 22.8032 9.38324 22.71 9.29C22.6168 9.19676 22.5061 9.1228 22.3843 9.07234C22.2624 9.02188 22.1319 8.99591 22 8.99591C21.8681 8.99591 21.7376 9.02188 21.6158 9.07234C21.4939 9.1228 21.3832 9.19676 21.29 9.29L9.29001 21.29C9.19628 21.383 9.12188 21.4936 9.07112 21.6154C9.02035 21.7373 8.99421 21.868 8.99421 22C8.99421 22.132 9.02035 22.2627 9.07112 22.3846C9.12188 22.5064 9.19628 22.617 9.29001 22.71C9.38297 22.8037 9.49357 22.8781 9.61543 22.9289C9.73729 22.9797 9.86799 23.0058 10 23.0058C10.132 23.0058 10.2627 22.9797 10.3846 22.9289C10.5064 22.8781 10.617 22.8037 10.71 22.71L22.71 10.71ZM24 20.5C24 19.8078 23.7947 19.1311 23.4101 18.5555C23.0256 17.9799 22.4789 17.5313 21.8394 17.2664C21.1999 17.0015 20.4961 16.9322 19.8172 17.0673C19.1383 17.2023 18.5146 17.5356 18.0251 18.0251C17.5356 18.5146 17.2023 19.1383 17.0673 19.8172C16.9322 20.4961 17.0015 21.1999 17.2664 21.8394C17.5313 22.4789 17.9799 23.0256 18.5555 23.4101C19.1311 23.7947 19.8078 24 20.5 24C21.4283 24 22.3185 23.6313 22.9749 22.9749C23.6313 22.3185 24 21.4283 24 20.5Z" fill="#59B35B"/>
</svg>
