<svg width="32" height="32" viewBox="0 0 32 32" fill="none" xmlns="http://www.w3.org/2000/svg">
<path d="M8.36 6.03181L20.9733 11.8717L17.6 13.3654C16.64 13.8055 15.3467 13.7922 14.4 13.3787L4.33332 8.832C4.97332 7.89837 5.90669 7.12525 7.05332 6.61843L8.36 6.03181ZM24.9467 6.61843L19.0933 4.01881C18.1184 3.59006 17.065 3.36865 16 3.36865C14.935 3.36865 13.8816 3.59006 12.9067 4.01881L10.7867 4.95206L23.3867 10.7789L27.6668 8.83231C27.0267 7.89837 26.0933 7.12506 24.9467 6.61843ZM3.50669 10.6451C3.38842 11.0887 3.33011 11.5461 3.33332 12.0051V20.0586C3.33332 22.3652 4.76 24.4319 7.05332 25.4452L12.92 28.0452C13.5789 28.347 14.2805 28.5449 15 28.6317V15.6184C14.5141 15.5375 14.0396 15.3987 13.5867 15.205L3.50669 10.6451ZM28.4933 10.6451L18.4133 15.205C17.9604 15.3987 17.4859 15.5375 17 15.6184V28.6317C17.7234 28.5431 18.4292 28.3454 19.0933 28.0452L24.9467 25.4452C27.24 24.4319 28.6667 22.3651 28.6667 20.0585V12.0051C28.6699 11.5461 28.6116 11.0887 28.4933 10.6451Z" fill="#59B35B"/>
</svg>
