<svg width="32" height="32" viewBox="0 0 32 32" fill="none" xmlns="http://www.w3.org/2000/svg">
<path d="M18.4083 28.2517V15.7392L16 18.1475L10.6158 12.7634C10.4729 12.6205 10.3368 12.4728 10.2068 12.3209H0V28.2517H1.875C1.875 26.0552 3.662 24.2682 5.85856 24.2682C8.05513 24.2682 9.84212 26.0552 9.84212 28.2517H18.4083V28.2517Z" fill="#59B35B"/>
<path d="M23.5659 22.1607V17.2407H20.2833V28.2517H22.1583C22.1583 26.0551 23.9453 24.2681 26.1419 24.2681C28.3385 24.2681 30.1255 26.0551 30.1255 28.2517H32V23.2287L29.686 22.1607H23.5659Z" fill="#59B35B"/>
<path d="M27.3715 17.2408H25.4409V20.2857H28.5315L27.3715 17.2408Z" fill="#59B35B"/>
<path d="M5.85856 30.3603C7.02309 30.3603 7.96712 29.4163 7.96712 28.2518C7.96712 27.0872 7.02309 26.1432 5.85856 26.1432C4.69404 26.1432 3.75 27.0872 3.75 28.2518C3.75 29.4163 4.69404 30.3603 5.85856 30.3603Z" fill="#59B35B"/>
<path d="M26.1418 30.3603C27.3064 30.3603 28.2504 29.4163 28.2504 28.2518C28.2504 27.0872 27.3064 26.1432 26.1418 26.1432C24.9773 26.1432 24.0333 27.0872 24.0333 28.2518C24.0333 29.4163 24.9773 30.3603 26.1418 30.3603Z" fill="#59B35B"/>
<path d="M16 8.90181C16.8408 8.90181 17.5224 8.22019 17.5224 7.37937C17.5224 6.53855 16.8408 5.85693 16 5.85693C15.1592 5.85693 14.4776 6.53855 14.4776 7.37937C14.4776 8.22019 15.1592 8.90181 16 8.90181Z" fill="#59B35B"/>
<path d="M11.9416 11.4376L16 15.496L20.0584 11.4376C21.1424 10.3536 21.7394 8.91233 21.7394 7.37921C21.7394 4.21446 19.1647 1.63977 16 1.63977C12.8352 1.63977 10.2606 4.21446 10.2606 7.37921C10.2606 8.91233 10.8576 10.3535 11.9416 11.4376ZM12.6026 7.37933C12.6026 5.50596 14.1267 3.9819 16 3.9819C17.8733 3.9819 19.3974 5.50602 19.3974 7.37933C19.3974 9.25265 17.8734 10.7768 16 10.7768C14.1266 10.7768 12.6026 9.25271 12.6026 7.37933Z" fill="#59B35B"/>
</svg>
