<svg width="30" height="30" viewBox="0 0 30 30" fill="none" xmlns="http://www.w3.org/2000/svg">
<g clip-path="url(#clip0_191_2182)">
<path d="M0.878906 28.2422C0.393105 28.2422 0 28.6353 0 29.1211C0 29.6069 0.393105 30 0.878906 30H27.3633C27.8491 30 28.2422 29.6069 28.2422 29.1211C28.2422 28.6353 27.8491 28.2422 27.3633 28.2422H24.7266V26.4844H27.3633C27.8491 26.4844 28.2422 26.0913 28.2422 25.6055V15.4187C27.2213 16.3201 26.0327 17.0508 24.6811 17.5011C24.4116 17.5913 24.1309 17.6367 23.8477 17.6367C23.5644 17.6367 23.2838 17.5913 23.0134 17.5011C22.998 17.496 22.9841 17.4882 22.9688 17.4831V22.0898C22.9688 22.5756 22.5756 22.9688 22.0898 22.9688C21.604 22.9688 21.2109 22.5756 21.2109 22.0898V16.6806C18.8616 15.3533 17.1319 13.1735 16.3764 10.6055H0.878906C0.393105 10.6055 0 10.9986 0 11.4844V25.6055C0 26.0913 0.393105 26.4844 0.878906 26.4844H3.57422V28.2422H0.878906ZM15.9375 15C15.9375 14.5142 16.3306 14.1211 16.8164 14.1211C17.3022 14.1211 17.6953 14.5142 17.6953 15V22.0898C17.6953 22.5756 17.3022 22.9688 16.8164 22.9688C16.3306 22.9688 15.9375 22.5756 15.9375 22.0898V15ZM10.6055 15C10.6055 14.5142 10.9986 14.1211 11.4844 14.1211C11.9702 14.1211 12.3633 14.5142 12.3633 15V22.0898C12.3633 22.5756 11.9702 22.9688 11.4844 22.9688C10.9986 22.9688 10.6055 22.5756 10.6055 22.0898V15ZM5.33203 15C5.33203 14.5142 5.72514 14.1211 6.21094 14.1211C6.69674 14.1211 7.08984 14.5142 7.08984 15V22.0898C7.08984 22.5756 6.69674 22.9688 6.21094 22.9688C5.72514 22.9688 5.33203 22.5756 5.33203 22.0898V15ZM8.84766 26.4844H19.4531V28.2422H8.84766V26.4844Z" fill="#59B35B"/>
<path d="M29.1211 1.75781H28.2422C27.7573 1.75781 27.3633 1.36383 27.3633 0.878906C27.3633 0.393105 26.9702 0 26.4844 0H24.7266V11.4844C24.7266 11.9702 24.3335 12.3633 23.8477 12.3633C23.3619 12.3633 22.9688 11.9702 22.9688 11.4844V0H21.2109C20.7251 0 20.332 0.393105 20.332 0.878906C20.332 1.36383 19.938 1.75781 19.4531 1.75781H18.5742C18.0884 1.75781 17.6953 2.15092 17.6953 2.63672V7.68381C17.6953 11.3874 20.0556 14.6627 23.5696 15.8334C23.6597 15.8635 23.7541 15.8789 23.8477 15.8789C23.9412 15.8789 24.0356 15.8634 24.1257 15.8334C27.6397 14.6627 30 11.3874 30 7.68381V2.63672C30 2.15092 29.6069 1.75781 29.1211 1.75781Z" fill="#59B35B"/>
</g>
<defs>
<clipPath id="clip0_191_2182">
<rect width="30" height="30" fill="white"/>
</clipPath>
</defs>
</svg>
