<svg width="40" height="28" viewBox="0 0 40 28" fill="none" xmlns="http://www.w3.org/2000/svg">
<path d="M16.0571 7.85604V2.61604C16.0571 2.17604 15.6971 1.81604 15.2571 1.81604H7.61714C7.16914 1.81604 6.81714 2.17604 6.81714 2.61604V7.85604H10.6331H12.2331H16.0571Z" fill="#59B35B"/>
<path d="M19.8812 10.2561C19.8812 9.81605 19.5212 9.45605 19.0812 9.45605H12.2332V15.4961H19.8812V10.2561Z" fill="#59B35B"/>
<path d="M2.99316 10.2561V15.4961H10.6332V9.45605H3.79316C3.35316 9.45605 2.99316 9.80805 2.99316 10.2561Z" fill="#59B35B"/>
<path d="M39.2012 17.0881H37.5532L36.6252 13.0001C36.5372 12.6321 36.2172 12.3761 35.8412 12.3761H33.2892V8.58405C33.2892 8.13605 32.9372 7.78405 32.4892 7.78405H30.6892V4.70405C30.6892 4.25605 30.3372 3.90405 29.8892 3.90405C29.4492 3.90405 29.0892 4.25605 29.0892 4.70405V7.78405H27.2892C26.8492 7.78405 26.4892 8.13605 26.4892 8.58405V12.3761H23.9452C23.5692 12.3761 23.2412 12.6321 23.1612 13.0001L22.2332 17.0881H0.801193C0.521193 17.0881 0.257193 17.2401 0.113193 17.4801C-0.0308072 17.7201 -0.0388072 18.0241 0.0971928 18.2721L4.10519 25.7601C4.24919 26.0161 4.51319 26.1841 4.80919 26.1841H33.0892C33.3292 26.1841 33.5532 26.0721 33.7052 25.8881L39.8172 18.4001C40.0172 18.1601 40.0572 17.8241 39.9212 17.5521C39.7932 17.2721 39.5132 17.0881 39.2012 17.0881Z" fill="#59B35B"/>
</svg>
