<svg width="36" height="36" viewBox="0 0 36 36" fill="none" xmlns="http://www.w3.org/2000/svg">
<g clip-path="url(#clip0_267_2293)">
<path d="M4.07398 22.8232C1.82756 22.8232 0 24.6624 0 26.923C0 27.6386 0.187031 28.344 0.540773 28.9629C0.557367 28.992 0.572695 29.0216 0.586758 29.0517L3.50684 34.2769C3.68234 34.591 4.12826 34.6008 4.31719 34.2947L7.45284 29.2141C7.52716 29.0942 7.55677 29.047 7.57223 29.0223C7.58102 29.0082 7.58278 29.0053 7.59052 28.9925C7.59466 28.9848 7.59895 28.9772 7.60331 28.9696C7.95959 28.349 8.14788 27.6414 8.14788 26.9231C8.14788 24.6624 6.32032 22.8232 4.07398 22.8232ZM4.07398 28.5724C3.16828 28.5724 2.43408 27.8335 2.43408 26.922C2.43408 26.0106 3.16828 25.2717 4.07398 25.2717C4.97967 25.2717 5.71387 26.0106 5.71387 26.9221C5.71387 27.8336 4.97967 28.5724 4.07398 28.5724Z" fill="#59B35B"/>
<path d="M31.6985 15.7173C31.6899 15.7173 31.6812 15.7172 31.6725 15.717C31.25 15.7078 30.8638 15.4747 30.6567 15.1041L26.3116 7.32908C26.2974 7.30384 26.2843 7.27825 26.2721 7.25223C25.7417 6.29007 25.4618 5.20241 25.4618 4.09977C25.4618 3.56666 25.5273 3.04881 25.6481 2.55261C24.7407 2.19971 23.7146 1.86875 22.6673 1.60339C22.7452 3.52757 22.2312 5.39837 21.1702 7.03489C20.105 8.67789 18.5417 10.0118 16.6495 10.8924C16.2834 11.0629 15.9132 11.2097 15.5551 11.3517C14.7035 11.6894 13.899 12.0083 13.3988 12.5542C13.1196 12.8589 12.8945 13.2815 12.6561 13.7289C12.4098 14.1911 12.1307 14.7149 11.7436 15.1908C10.921 16.202 9.6553 16.9239 8.17972 17.2235C6.70597 17.5225 5.44562 17.5404 4.32652 17.2782C2.9368 16.9524 2.49221 17.1562 2.10001 17.3355C1.92402 17.4161 1.72454 17.5075 1.4802 17.5634C1.45152 17.57 1.30344 17.5972 1.11317 17.6309C1.09918 17.9186 1.0918 18.208 1.0918 18.4992C1.0918 19.1955 1.17814 20.175 1.28853 21.0535C2.13263 20.6461 3.07742 20.4175 4.07438 20.4175C7.63895 20.4175 10.5389 23.3359 10.5389 26.9231C10.5389 28.0451 10.2493 29.1512 9.70072 30.1257C9.68912 30.1482 9.67667 30.1705 9.66352 30.1925L9.64602 30.2218C9.61698 30.2702 9.61698 30.2702 9.59476 30.3057C9.58006 30.3291 9.55208 30.3738 9.48275 30.4855L8.1852 32.5878C8.85774 33.0734 9.42186 33.4385 10.1694 33.8351C10.7972 33.3711 10.3602 33.693 10.7972 33.3711C12.0617 32.4398 13.5278 30.643 13.8228 29.18C14.1365 27.6245 14.0548 26.0005 13.9683 24.2811L13.9494 23.9012C13.8828 22.5423 13.8573 21.2152 14.2707 19.9191C14.8026 18.2512 16.0386 16.9976 17.4965 16.6475C19.0008 16.2863 20.3555 16.8753 21.5508 17.395C21.7898 17.499 22.0157 17.5972 22.2377 17.686C24.8915 18.7462 27.9354 18.6114 30.5804 18.4016C30.7256 18.3901 30.871 18.3783 31.0165 18.3665C32.594 18.2379 34.2236 18.1064 35.8714 18.366C35.8487 16.3608 35.3203 14.0067 34.6259 12.0512L32.7139 15.1492C32.4955 15.5028 32.1111 15.7173 31.6985 15.7173Z" fill="#59B35B"/>
<path d="M4.86846 14.9349C5.64724 15.1176 6.57558 15.0947 7.70662 14.865C8.64277 14.675 9.41937 14.2494 9.89341 13.6667C10.1334 13.3718 10.3353 12.9929 10.5489 12.5919C10.8335 12.0579 11.1559 11.4527 11.641 10.9233C12.5127 9.97201 13.6633 9.51575 14.6785 9.11322C15.0198 8.97786 15.3424 8.85004 15.6457 8.70878C18.7322 7.27229 20.4951 4.48651 20.2633 1.43727C20.2547 1.32365 20.2509 1.22127 20.2507 1.12733C19.6343 1.04465 19.0375 0.998169 18.4819 0.998169C10.0665 0.998169 3.04751 7.01368 1.43848 15.0049C2.16192 14.7202 3.13153 14.5279 4.86846 14.9349Z" fill="#59B35B"/>
<path d="M35.4428 6.1695C35.4471 6.1617 35.4514 6.15389 35.4559 6.14623C35.8121 5.52565 36.0004 4.81802 36.0004 4.09978C36.0004 1.83916 34.1729 0 31.9265 0C29.6801 0 27.8525 1.83916 27.8525 4.09978C27.8525 4.81542 28.0395 5.52066 28.3933 6.13955C28.41 6.16859 28.4253 6.19826 28.4393 6.22835L31.3594 11.4536C31.5349 11.7676 31.9808 11.7774 32.1697 11.4713L35.3054 6.39077C35.3799 6.27054 35.4094 6.22343 35.4248 6.19875C35.4335 6.18497 35.4353 6.18209 35.4428 6.1695ZM31.9265 5.74917C31.0208 5.74917 30.2866 5.01026 30.2866 4.0988C30.2866 3.18734 31.0208 2.44842 31.9265 2.44842C32.8322 2.44842 33.5664 3.18734 33.5664 4.0988C33.5664 5.01026 32.8322 5.74917 31.9265 5.74917Z" fill="#59B35B"/>
<path d="M35.6271 20.7623C34.2219 20.5188 32.7584 20.6378 31.209 20.7642C31.0618 20.7762 30.9147 20.7882 30.7678 20.7999C27.855 21.0307 24.4853 21.1723 21.3553 19.9218C21.1 19.8199 20.8469 19.7098 20.6022 19.6034C19.666 19.1964 18.7819 18.8119 18.0509 18.9874C17.4108 19.1411 16.8203 19.7954 16.5464 20.6541C16.2553 21.5668 16.2792 22.6109 16.3365 23.7826L16.3553 24.1594C16.4455 25.9519 16.5388 27.8055 16.1651 29.6584C15.7861 31.538 14.3574 33.6902 12.7012 34.9696C14.5293 35.6275 16.487 36 18.4818 36C27.3201 36 34.6179 29.3647 35.7262 20.7743C35.6932 20.7713 35.6602 20.768 35.6271 20.7623Z" fill="#59B35B"/>
</g>
<defs>
<clipPath id="clip0_267_2293">
<rect width="36" height="36" fill="white"/>
</clipPath>
</defs>
</svg>
