<svg width="32" height="32" viewBox="0 0 32 32" fill="none" xmlns="http://www.w3.org/2000/svg">
<path d="M6.44511 8.42807C6.88915 8.42807 7.24911 8.06811 7.24911 7.62407C7.24911 7.18003 6.88915 6.82007 6.44511 6.82007C6.00108 6.82007 5.64111 7.18003 5.64111 7.62407C5.64111 8.06811 6.00108 8.42807 6.44511 8.42807Z" fill="#59B35B"/>
<path d="M9.27715 8.42807C9.72118 8.42807 10.0811 8.06811 10.0811 7.62407C10.0811 7.18003 9.72118 6.82007 9.27715 6.82007C8.83311 6.82007 8.47314 7.18003 8.47314 7.62407C8.47314 8.06811 8.83311 8.42807 9.27715 8.42807Z" fill="#59B35B"/>
<path d="M12.108 8.42807C12.552 8.42807 12.912 8.06811 12.912 7.62407C12.912 7.18003 12.552 6.82007 12.108 6.82007C11.6639 6.82007 11.304 7.18003 11.304 7.62407C11.304 8.06811 11.6639 8.42807 12.108 8.42807Z" fill="#59B35B"/>
<path d="M24.9571 17.4541C21.9231 17.4541 19.4641 19.9131 19.4641 22.9471C19.4641 25.9811 21.9231 28.4401 24.9571 28.4401C27.9911 28.4401 30.4501 25.9811 30.4501 22.9471C30.4501 19.9131 27.9911 17.4541 24.9571 17.4541ZM26.8181 24.8081C26.6421 24.9841 26.4121 25.0721 26.1811 25.0721C25.9501 25.0721 25.7201 24.9841 25.5441 24.8081L24.3191 23.5831C24.1511 23.4141 24.0551 23.1851 24.0551 22.9461V20.9301C24.0551 20.4331 24.4581 20.0301 24.9551 20.0301C25.4521 20.0301 25.8551 20.4331 25.8551 20.9301V22.5751L26.8161 23.5361C27.1701 23.8871 27.1701 24.4571 26.8181 24.8081Z" fill="#59B35B"/>
<path d="M17.9641 22.9471C17.9641 19.0911 21.1011 15.9541 24.9571 15.9541C26.6341 15.9541 28.174 16.5481 29.38 17.5361V7.28006C29.38 5.23006 27.71 3.56006 25.66 3.56006H5.27005C3.22005 3.56006 1.55005 5.23006 1.55005 7.28006V23.9301C1.55005 25.9901 3.22005 27.6601 5.28005 27.6601H19.805C18.6651 26.4151 17.9641 24.7641 17.9641 22.9471ZM3.35005 9.90006V7.28006C3.35005 6.22106 4.21105 5.36006 5.27005 5.36006H25.66C26.719 5.36006 27.58 6.22106 27.58 7.28006V9.90006H3.35005Z" fill="#59B35B"/>
</svg>
