<svg width="32" height="32" viewBox="0 0 32 32" fill="none" xmlns="http://www.w3.org/2000/svg">
<g clip-path="url(#clip0_191_2174)">
<path d="M7.33333 6.90271L0.737333 8.70138C0.302667 8.82004 0 9.21604 0 9.66671V23.6667C0 24.1174 0.302667 24.5134 0.737333 24.632L7.33333 26.4307V6.90271Z" fill="#59B35B"/>
<path d="M31.088 8.67061L9.33337 6.75061V26.5826L31.088 24.6626C31.604 24.6173 32 24.1853 32 23.6666V9.66661C32 9.14794 31.604 8.71594 31.088 8.67061ZM14 21.6666C14 22.2186 13.552 22.6666 13 22.6666C12.448 22.6666 12 22.2186 12 21.6666V11.6666C12 11.1146 12.448 10.6666 13 10.6666C13.552 10.6666 14 11.1146 14 11.6666V21.6666ZM19.3334 20.9999C19.3334 21.5519 18.8854 21.9999 18.3334 21.9999C17.7814 21.9999 17.3334 21.5519 17.3334 20.9999V12.3333C17.3334 11.7813 17.7814 11.3333 18.3334 11.3333C18.8854 11.3333 19.3334 11.7813 19.3334 12.3333V20.9999ZM24.6667 20.3333C24.6667 20.8853 24.2187 21.3333 23.6667 21.3333C23.1147 21.3333 22.6667 20.8853 22.6667 20.3333V12.9999C22.6667 12.4479 23.1147 11.9999 23.6667 11.9999C24.2187 11.9999 24.6667 12.4479 24.6667 12.9999V20.3333ZM29.3334 19.9999C29.3334 20.5519 28.8854 20.9999 28.3334 20.9999C27.7814 20.9999 27.3334 20.5519 27.3334 19.9999V13.6666C27.3334 13.1146 27.7814 12.6666 28.3334 12.6666C28.8854 12.6666 29.3334 13.1146 29.3334 13.6666V19.9999Z" fill="#59B35B"/>
</g>
<defs>
<clipPath id="clip0_191_2174">
<rect width="32" height="32" fill="white"/>
</clipPath>
</defs>
</svg>
