<svg width="36" height="36" viewBox="0 0 36 36" fill="none" xmlns="http://www.w3.org/2000/svg">
<g clip-path="url(#clip0_267_2288)">
<path d="M31.3296 19.263C33.905 19.263 36.0003 17.1678 36.0003 14.5924V12.7888C36.0003 12.2057 35.5275 11.7329 34.9444 11.7329C33.0158 11.7316 31.5984 11.5519 30.0536 12.9031L29.6808 11.0957L30.4474 10.9044C32.9463 10.2808 34.4718 7.74054 33.8482 5.24172L33.4115 3.49195C33.2703 2.92612 32.6971 2.58218 32.1313 2.72311L30.3815 3.15983C27.9331 3.71742 26.3225 6.3992 26.9808 8.82242L27.4121 10.5509C28.1285 14.307 29.3628 17.3221 27.3657 20.9967C26.3621 22.8578 24.7335 24.3286 22.78 25.1381L19.8992 26.3316C19.4998 26.4977 19.1856 26.9435 19.256 27.4413C19.5069 29.4511 19.5224 30.9593 21.2618 32.3322C22.2479 33.0971 23.4879 33.4285 24.7115 33.2694L26.5004 33.0402C27.0427 32.9707 27.4359 32.5014 27.4219 31.9665C27.4209 31.9308 27.4182 31.8949 27.4135 31.8587C27.1627 29.8489 27.1471 28.3407 25.4077 26.9678C25.1946 26.8031 24.9705 26.6584 24.7375 26.5345C25.224 26.2649 25.6886 25.9594 26.1287 25.6228L27.3693 26.3876C28.4331 27.0449 29.6948 27.2432 30.8985 26.9564C33.0481 26.4242 33.6876 25.0523 34.7427 23.3278C34.934 23.0176 34.9454 22.6471 34.8059 22.3382C34.7222 22.1528 34.5842 21.9896 34.3981 21.8749C32.9005 20.9609 31.8269 20.0727 29.9821 20.2554C30.0925 19.9287 30.1882 19.5976 30.2683 19.263H31.3296V19.263Z" fill="#59B35B"/>
<path d="M16.7508 27.2547C16.7341 26.8969 16.509 26.4949 16.1012 26.3316L13.2203 25.1381C11.2668 24.3286 9.63821 22.8578 8.63461 20.9967C6.63656 17.3203 7.87316 14.3028 8.58822 10.5509C9.08498 8.59421 9.60836 7.19035 8.49199 5.28677C7.84965 4.21728 6.82929 3.46189 5.61888 3.15976L3.86904 2.72304C3.69221 2.67897 3.51468 2.68221 3.34981 2.72487C2.98715 2.81864 2.68593 3.10288 2.58886 3.49181L2.15214 5.24165C1.52852 7.74041 3.05409 10.2807 5.55285 10.9043L6.31957 11.0956L5.9467 12.9031C5.12289 12.1758 4.0422 11.733 2.85938 11.733H1.0559C0.472763 11.733 0 12.2057 0 12.7889V14.5924C0 17.1679 2.09526 19.2631 4.67068 19.2631H5.73193C5.81753 19.6206 5.92094 19.9742 6.04117 20.3227C4.21446 20.1556 3.14546 21.0434 1.66467 21.9455C1.17733 22.2417 1.00951 22.8988 1.31995 23.3984C1.32002 23.3985 1.32016 23.3987 1.3203 23.3989C2.37747 25.1263 3.01362 26.4934 5.16421 27.027C6.36786 27.3139 7.62974 27.1154 8.69345 26.4582L9.95089 25.683C10.3675 25.9959 10.8055 26.2811 11.2628 26.5346C11.0299 26.6586 10.8056 26.8032 10.5926 26.9679C8.85374 28.3392 8.83692 29.8527 8.58681 31.8588C8.58216 31.8949 8.57942 31.9308 8.5785 31.9665C8.56449 32.5015 8.95771 32.9708 9.49995 33.0402C9.95927 33.0892 11.4574 33.3217 11.8919 33.3081C12.9193 33.3081 13.9124 32.9708 14.7386 32.3323C16.4777 30.9601 16.494 29.449 16.7444 27.4414C16.7465 27.3941 16.7554 27.3692 16.7508 27.2547Z" fill="#59B35B"/>
<path d="M22.0388 21.6095C22.2329 21.6095 22.4263 21.5492 22.5897 21.4306C22.8844 21.2164 23.0283 20.8508 22.9587 20.4932L22.2441 16.8256C22.2039 16.619 22.273 16.4063 22.427 16.2628L25.1609 13.7158C25.4275 13.4675 25.5259 13.0871 25.4133 12.7406C25.3007 12.3941 24.9976 12.1443 24.6359 12.1L20.927 11.6463C20.7181 11.6207 20.5371 11.4892 20.4482 11.2985L18.8801 7.93148C18.5474 7.19418 17.5104 7.18552 17.1718 7.91128L15.5942 11.2985C15.5054 11.4892 15.3244 11.6207 15.1154 11.6463L11.4066 12.1C10.6141 12.1952 10.2988 13.1893 10.8978 13.7309L13.6154 16.2628C13.7694 16.4063 13.8386 16.619 13.7983 16.8256L13.0837 20.4932C13.0141 20.8508 13.158 21.2164 13.4527 21.4306C13.7475 21.6447 14.1396 21.6686 14.4582 21.4918L17.7254 19.6788C17.9094 19.5767 18.1331 19.5767 18.3172 19.6788L21.5845 21.4918C21.7261 21.5706 21.8827 21.6095 22.0388 21.6095Z" fill="#59B35B"/>
</g>
<defs>
<clipPath id="clip0_267_2288">
<rect width="36" height="36" fill="white"/>
</clipPath>
</defs>
</svg>
