<svg width="34" height="34" viewBox="0 0 34 34" fill="none" xmlns="http://www.w3.org/2000/svg">
<g clip-path="url(#clip0_370_2751)">
<path d="M28.7358 10.5276H24.4681C22.7423 10.5276 21.3382 9.12349 21.3382 7.39766V3.12886C21.3382 1.39798 19.9373 0 18.2093 0H13.7989C12.0538 0 10.6689 1.41611 10.6689 3.12993V22.3346C10.6689 24.0796 12.0851 25.4645 13.7989 25.4645H28.7358C30.4848 25.4645 31.8658 24.0441 31.8658 22.3346V13.6576C31.8658 11.9317 30.4617 10.5276 28.7358 10.5276ZM25.2969 14.3517L21.0292 20.7533C20.6528 21.3399 19.748 21.3397 19.3716 20.7533L17.2377 17.5525C16.9325 17.0948 17.0562 16.4763 17.514 16.1712C17.9716 15.866 18.5901 15.9897 18.8953 16.4474L20.2004 18.405L23.6393 13.2467C23.9444 12.7889 24.5629 12.6653 25.0206 12.9703C25.4785 13.2755 25.6021 13.894 25.2969 14.3517Z" fill="#59B35B"/>
<path d="M4.40933 26.6023V8.65533C3.11454 9.02382 2.13379 10.2078 2.13379 11.6653V30.87C2.13379 32.5958 3.53788 33.9999 5.26371 33.9999H20.2007C21.6303 33.9999 22.8383 33.0361 23.2111 31.7244H9.53145C6.70712 31.7245 4.40933 29.4267 4.40933 26.6023Z" fill="#59B35B"/>
<path d="M8.67684 22.3346V4.38766C7.38205 4.75622 6.40137 5.94031 6.40137 7.39766V26.6023C6.40137 28.3282 7.80546 29.7323 9.53129 29.7323H24.4683C25.8979 29.7323 27.1058 28.7684 27.4787 27.4567H13.799C10.9747 27.4568 8.67684 25.159 8.67684 22.3346Z" fill="#59B35B"/>
<path d="M23.3308 7.39766C23.3308 8.025 23.8412 8.5354 24.4686 8.5354H28.7363C29.7051 8.5354 30.6119 8.80587 31.3853 9.27516C31.0806 8.55306 30.6367 7.8894 30.0659 7.31857L24.5477 1.80041C23.9771 1.22971 23.3136 0.785919 22.5918 0.481247C23.0607 1.25435 23.3309 2.16059 23.3309 3.12886V7.39766H23.3308Z" fill="#59B35B"/>
</g>
<defs>
<clipPath id="clip0_370_2751">
<rect width="34" height="34" fill="white"/>
</clipPath>
</defs>
</svg>
