<svg width="34" height="34" viewBox="0 0 34 34" fill="none" xmlns="http://www.w3.org/2000/svg">
<g clip-path="url(#clip0_375_3445)">
<path d="M28.7367 10.5276H24.4691C22.7432 10.5276 21.3391 9.12349 21.3391 7.39766V3.12886C21.3391 1.39798 19.9382 0 18.2103 0H13.7998C12.0548 0 10.6699 1.41611 10.6699 3.12993V22.3346C10.6699 24.0796 12.086 25.4645 13.7998 25.4645H28.7368C30.4858 25.4645 31.8668 24.0441 31.8668 22.3346V13.6576C31.8667 11.9317 30.4626 10.5276 28.7367 10.5276ZM25.2979 14.3517L21.0302 20.7533C20.6538 21.3399 19.749 21.3397 19.3726 20.7533L17.2387 17.5525C16.9335 17.0948 17.0572 16.4763 17.5149 16.1712C17.9726 15.866 18.5911 15.9897 18.8963 16.4474L20.2013 18.405L23.6403 13.2467C23.9454 12.7889 24.5638 12.6653 25.0216 12.9703C25.4794 13.2755 25.6031 13.894 25.2979 14.3517Z" fill="#59B35B"/>
<path d="M4.41031 26.6023V8.65533C3.11552 9.02382 2.13477 10.2078 2.13477 11.6653V30.87C2.13477 32.5958 3.53886 33.9999 5.26469 33.9999H20.2017C21.6313 33.9999 22.8392 33.0361 23.2121 31.7244H9.53242C6.7081 31.7245 4.41031 29.4267 4.41031 26.6023Z" fill="#59B35B"/>
<path d="M8.67782 22.3346V4.38766C7.38303 4.75622 6.40234 5.94031 6.40234 7.39766V26.6023C6.40234 28.3282 7.80644 29.7323 9.53227 29.7323H24.4693C25.8989 29.7323 27.1068 28.7684 27.4797 27.4567H13.8C10.9757 27.4568 8.67782 25.159 8.67782 22.3346Z" fill="#59B35B"/>
<path d="M23.3308 7.39766C23.3308 8.025 23.8412 8.5354 24.4686 8.5354H28.7363C29.7051 8.5354 30.6119 8.80587 31.3853 9.27516C31.0806 8.55306 30.6367 7.8894 30.0659 7.31857L24.5477 1.80041C23.9771 1.22971 23.3136 0.785919 22.5918 0.481247C23.0607 1.25435 23.3309 2.16059 23.3309 3.12886V7.39766H23.3308Z" fill="#59B35B"/>
</g>
<defs>
<clipPath id="clip0_375_3445">
<rect width="34" height="34" fill="white"/>
</clipPath>
</defs>
</svg>
