<svg width="36" height="36" viewBox="0 0 36 36" fill="none" xmlns="http://www.w3.org/2000/svg">
<g clip-path="url(#clip0_375_3451)">
<path d="M35.2803 5.688C35.2803 2.952 33.0483 0.792 30.3843 0.792C27.6483 0.792 25.4883 3.024 25.4883 5.688C25.4883 8.424 30.3843 14.616 30.3843 14.616C30.3843 14.616 35.2803 8.424 35.2803 5.688ZM27.8643 5.76C27.8643 4.392 28.9443 3.312 30.3123 3.312C31.6803 3.312 32.7603 4.392 32.7603 5.76C32.7603 7.128 31.6803 8.208 30.3123 8.208C29.0163 8.208 27.8643 7.128 27.8643 5.76Z" fill="#59B35B"/>
<path d="M14.5442 3.024C9.79224 3.744 5.68823 6.48 3.24023 10.368H10.0802C11.0882 6.84 12.6722 4.248 14.5442 3.024Z" fill="#59B35B"/>
<path d="M30.3849 16.416C30.3849 16.416 24.3369 8.64 24.3369 5.688C24.3369 5.328 24.3369 4.968 24.4089 4.608C22.8249 3.816 21.0969 3.24 19.2969 2.952C21.1689 4.176 22.8249 6.84 23.7609 10.368H24.6249C24.9129 10.368 25.2009 10.656 25.2009 10.944C25.2009 11.232 24.9129 11.52 24.6249 11.52H24.0489C24.5529 13.608 24.8409 15.984 24.8409 18.576H33.2649C33.1929 16.92 32.9049 15.336 32.4009 13.824C31.8969 14.472 30.3849 16.416 30.3849 16.416Z" fill="#59B35B"/>
<path d="M24.7687 22.176C24.7687 22.464 24.4807 22.68 24.1927 22.68H24.1207C23.8327 22.68 23.6167 22.392 23.6167 22.104C23.6887 21.312 23.6887 20.52 23.7607 19.728H15.6247C15.3367 19.728 15.0487 19.44 15.0487 19.152C15.0487 18.864 15.3367 18.576 15.6247 18.576H23.7607C23.6887 16.056 23.4007 13.68 22.8967 11.52H11.0167C10.6567 12.96 10.3687 14.544 10.2247 16.2C10.2247 16.488 9.9367 16.704 9.6487 16.704C9.3607 16.704 9.1447 16.416 9.1447 16.128C9.2887 14.472 9.5047 12.96 9.8647 11.52H2.5927C1.4407 13.608 0.792703 15.984 0.720703 18.576H5.1847C5.4727 18.576 5.7607 18.864 5.7607 19.152C5.7607 19.44 5.4727 19.728 5.1847 19.728H0.720703C0.792703 22.248 1.4407 24.624 2.5927 26.784H6.4087C6.6967 26.784 6.9847 27.072 6.9847 27.36C6.9847 27.648 6.7687 27.936 6.4087 27.936H3.2407C5.6887 31.824 9.7927 34.632 14.5447 35.352C13.3207 34.56 12.1687 33.12 11.3047 31.176C11.1607 30.888 11.3047 30.528 11.5927 30.456C11.8807 30.312 12.2407 30.456 12.3127 30.744C13.6087 33.48 15.2647 34.992 16.9207 34.992C18.6487 34.992 20.3047 33.48 21.5287 30.744C21.6727 30.456 22.0327 30.384 22.2487 30.456C22.5367 30.6 22.6807 30.888 22.5367 31.176C21.6007 33.192 20.4487 34.56 19.2247 35.352C24.0487 34.704 28.2247 31.896 30.6727 27.936H28.3687C28.0807 27.936 27.7927 27.648 27.7927 27.36C27.7927 27.072 28.0807 26.784 28.3687 26.784H31.3207C32.4727 24.696 33.1207 22.32 33.1927 19.728H24.8407C24.8407 20.52 24.8407 21.384 24.7687 22.176ZM10.3687 29.304C10.3687 29.304 6.4087 24.336 6.4087 22.104C6.4087 19.944 8.2087 18.144 10.3687 18.144C12.5287 18.144 14.3287 19.944 14.3287 22.104C14.3287 24.336 10.3687 29.304 10.3687 29.304ZM20.2327 27.792H14.4007C14.1127 27.792 13.8247 27.504 13.8247 27.216C13.8247 26.928 14.0407 26.64 14.4007 26.64H20.2327C20.5207 26.64 20.8087 26.928 20.8087 27.216C20.7367 27.576 20.5207 27.792 20.2327 27.792ZM26.4967 26.352C26.4967 27.576 24.3367 30.312 24.3367 30.312C24.3367 30.312 22.1047 27.576 22.1047 26.352C22.1047 25.128 23.1127 24.12 24.3367 24.12C25.5607 24.192 26.4967 25.128 26.4967 26.352Z" fill="#59B35B"/>
<path d="M11.3047 10.368H22.6087C21.3847 6.192 19.2967 3.312 16.9927 3.312C14.6167 3.384 12.5287 6.192 11.3047 10.368Z" fill="#59B35B"/>
<path d="M10.3695 24.192C11.4829 24.192 12.3855 23.2894 12.3855 22.176C12.3855 21.0626 11.4829 20.16 10.3695 20.16C9.25611 20.16 8.35352 21.0626 8.35352 22.176C8.35352 23.2894 9.25611 24.192 10.3695 24.192Z" fill="#59B35B"/>
<path d="M17.999 18.792C18.4364 18.792 18.791 18.4374 18.791 18C18.791 17.5626 18.4364 17.208 17.999 17.208C17.5616 17.208 17.207 17.5626 17.207 18C17.207 18.4374 17.5616 18.792 17.999 18.792Z" fill="#59B35B"/>
</g>
<defs>
<clipPath id="clip0_375_3451">
<rect width="36" height="36" fill="white"/>
</clipPath>
</defs>
</svg>
