<svg width="36" height="36" viewBox="0 0 36 36" fill="none" xmlns="http://www.w3.org/2000/svg">
<path d="M6.75 6H29.25C29.6642 6 30 6.33579 30 6.75V8.25C30 8.66421 29.6642 9 29.25 9H6.75C6.33579 9 6 8.66421 6 8.25V6.75C6 6.33579 6.33579 6 6.75 6Z" fill="#59B35B"/>
<path d="M15.5099 1.49999C16.2494 1.00661 17.1184 0.743317 18.0074 0.743317C18.8963 0.743317 19.7654 1.00661 20.5049 1.49999L25.0049 4.49999H11.0174L15.5099 1.49999Z" fill="#59B35B"/>
<path d="M21 19.1175H21.75V19.8675C21.75 20.4642 21.5129 21.0365 21.091 21.4585C20.669 21.8804 20.0967 22.1175 19.5 22.1175H18.75V21.3675C18.75 20.7708 18.9871 20.1985 19.409 19.7765C19.831 19.3545 20.4033 19.1175 21 19.1175Z" fill="#59B35B"/>
<path d="M17.4674 15.09L17.9999 14.5575L18.5324 15.09C18.9538 15.5119 19.1904 16.0837 19.1904 16.68C19.1904 17.2762 18.9538 17.8481 18.5324 18.27L17.9999 18.8025L17.4674 18.27C17.0461 17.8481 16.8094 17.2762 16.8094 16.68C16.8094 16.0837 17.0461 15.5119 17.4674 15.09Z" fill="#59B35B"/>
<path d="M21 23.6175H21.75V24.3675C21.75 24.9642 21.5129 25.5365 21.091 25.9585C20.669 26.3804 20.0967 26.6175 19.5 26.6175H18.75V25.8675C18.75 25.2708 18.9871 24.6985 19.409 24.2765C19.831 23.8545 20.4033 23.6175 21 23.6175Z" fill="#59B35B"/>
<path d="M5.11496 33L5.99996 31.5C4.60445 24.5229 4.95484 17.309 7.01996 10.5H28.98C31.0491 17.3083 31.3995 24.5232 30 31.5L30.885 33C31.0162 33.2274 31.0855 33.4852 31.0859 33.7477C31.0863 34.0103 31.0178 34.2683 30.8872 34.4961C30.7566 34.7239 30.5686 34.9134 30.3418 35.0457C30.115 35.178 29.8575 35.2484 29.595 35.25H6.40496C6.14242 35.2484 5.8849 35.178 5.65812 35.0457C5.43135 34.9134 5.24327 34.7239 5.11269 34.4961C4.9821 34.2683 4.91358 34.0103 4.91398 33.7477C4.91438 33.4852 4.98368 33.2274 5.11496 33ZM13.5 22.1175C13.301 22.1175 13.1103 22.1965 12.9696 22.3372C12.829 22.4778 12.75 22.6686 12.75 22.8675V24.3675C12.75 25.3621 13.145 26.3159 13.8483 27.0192C14.5516 27.7224 15.5054 28.1175 16.5 28.1175H17.25V30.75C17.25 30.9489 17.329 31.1397 17.4696 31.2803C17.6103 31.421 17.801 31.5 18 31.5C18.1989 31.5 18.3896 31.421 18.5303 31.2803C18.6709 31.1397 18.75 30.9489 18.75 30.75V28.1175H19.5C20.4945 28.1175 21.4483 27.7224 22.1516 27.0192C22.8549 26.3159 23.25 25.3621 23.25 24.3675V22.8675C23.25 22.6686 23.1709 22.4778 23.0303 22.3372C22.8896 22.1965 22.6989 22.1175 22.5 22.1175C23.4375 20.88 23.25 20.1075 23.25 16.8675C23.25 16.6686 23.1709 16.4778 23.0303 16.3372C22.8896 16.1965 22.6989 16.1175 22.5 16.1175C22.301 16.1175 22.1103 16.1965 21.9696 16.3372C21.829 16.4778 21.75 16.6686 21.75 16.8675V17.6175C21.347 17.5872 20.942 17.6022 20.5425 17.6625C21.1725 15.315 19.65 14.085 18.5325 12.9675C18.4627 12.8972 18.3798 12.8414 18.2884 12.8033C18.197 12.7653 18.099 12.7457 18 12.7457C17.901 12.7457 17.8029 12.7653 17.7115 12.8033C17.6201 12.8414 17.5372 12.8972 17.4675 12.9675C16.3425 14.0925 14.82 15.3 15.4575 17.6625C15.0581 17.6006 14.6528 17.5855 14.25 17.6175V16.8675C14.25 16.6686 14.1709 16.4778 14.0303 16.3372C13.8896 16.1965 13.6989 16.1175 13.5 16.1175C13.301 16.1175 13.1103 16.1965 12.9696 16.3372C12.829 16.4778 12.75 16.6686 12.75 16.8675C12.75 19.665 12.525 20.7975 13.5 22.1175Z" fill="#59B35B"/>
<path d="M17.25 21.3675V22.1175H16.5C15.9033 22.1175 15.331 21.8804 14.909 21.4585C14.4871 21.0365 14.25 20.4642 14.25 19.8675V19.1175H15C15.5967 19.1175 16.169 19.3545 16.591 19.7765C17.0129 20.1985 17.25 20.7708 17.25 21.3675Z" fill="#59B35B"/>
<path d="M17.25 25.8675V26.6175H16.5C15.9033 26.6175 15.331 26.3804 14.909 25.9585C14.4871 25.5365 14.25 24.9642 14.25 24.3675V23.6175H15C15.5967 23.6175 16.169 23.8545 16.591 24.2765C17.0129 24.6985 17.25 25.2708 17.25 25.8675Z" fill="#59B35B"/>
</svg>
