<svg width="36" height="36" viewBox="0 0 36 36" fill="none" xmlns="http://www.w3.org/2000/svg">
<path d="M20.4157 27.6448L19.3856 34.2401C19.226 35.2596 18.3612 36 17.3297 36H7.58789V25.9088L10.8047 22.2813V17.7891H10.9151C12.5463 17.7891 13.8731 19.1159 13.8731 20.7471V25.2422H18.3598C18.9687 25.2422 19.5452 25.508 19.9411 25.9706C20.337 26.4326 20.5099 27.0429 20.4157 27.6448Z" fill="#59B35B"/>
<path d="M2.33203 26.498H5.47922V36H2.33203V26.498Z" fill="#59B35B"/>
<path d="M30.397 3.4207C27.9135 3.43603 25.6326 2.08547 24.3184 0H22.3912C21.0734 2.08392 18.796 3.43673 16.3113 3.4207H13.041V16.1473C14.8116 16.9687 15.9858 18.7552 15.9829 20.7471C15.9827 21.2397 15.983 22.6586 15.9829 23.1328C16.4223 23.1329 17.8956 23.1327 18.3602 23.1328C20.0984 23.112 21.7444 24.2787 22.3082 25.9179H22.3089C22.5427 26.5714 22.609 27.281 22.5009 27.9703L22.4481 28.3057L23.3538 28.7241L29.9463 25.6802C32.2068 24.6361 33.6672 22.353 33.6672 19.8633V3.4207H30.397ZM20.1166 9.16453L22.0551 11.103L26.5916 6.56648L28.083 8.05852L22.0551 14.0864L18.6252 10.6559L20.1166 9.16453ZM19.1076 20.5432V18.4338H27.6006V20.5432H19.1076Z" fill="#59B35B"/>
</svg>
