<svg width="36" height="36" viewBox="0 0 36 36" fill="none" xmlns="http://www.w3.org/2000/svg">
<path d="M6.47715 17.3557C2.90565 17.3557 0 20.2614 0 23.833C0 25.6386 0.987275 27.8194 2.93448 30.3149C4.32523 32.0972 5.69966 33.3861 5.75752 33.4401L6.47722 34.1121L7.19692 33.4401C7.25478 33.3861 8.62922 32.0972 10.02 30.3149C11.9671 27.8194 12.9544 25.6386 12.9544 23.833C12.9544 20.2614 10.0487 17.3557 6.47715 17.3557ZM6.47715 25.9284C5.32171 25.9284 4.38168 24.9884 4.38168 23.833C4.38168 22.6775 5.32171 21.7375 6.47715 21.7375C7.63259 21.7375 8.57262 22.6775 8.57262 23.833C8.57262 24.9884 7.63259 25.9284 6.47715 25.9284Z" fill="#59B35B"/>
<path d="M29.5221 1.88794C25.9506 1.88794 23.0449 4.79359 23.0449 8.36509C23.0449 10.1707 24.0322 12.3515 25.9793 14.847C27.37 16.6294 28.7445 17.9182 28.8023 17.9722L29.522 18.6442L30.2416 17.9722C30.2995 17.9182 31.674 16.6294 33.0647 14.847C35.0119 12.3515 35.9992 10.1707 35.9992 8.36509C35.9993 4.79366 33.0936 1.88794 29.5221 1.88794ZM29.5221 10.4606C28.3666 10.4606 27.4266 9.5206 27.4266 8.36516C27.4266 7.20972 28.3666 6.26969 29.5221 6.26969C30.6776 6.26969 31.6176 7.20972 31.6176 8.36516C31.6176 9.5206 30.6776 10.4606 29.5221 10.4606Z" fill="#59B35B"/>
<path d="M25.6555 33.7238H10.6953V31.6147H25.6555C27.2063 31.6147 28.4679 30.3531 28.4679 28.8024C28.4679 27.2516 27.2063 25.99 25.6555 25.99H19.7573C17.0436 25.99 14.8358 23.7823 14.8358 21.0685C14.8358 18.3548 17.0436 16.1471 19.7573 16.1471H25.3039V18.2562H19.7573C18.2065 18.2562 16.9449 19.5178 16.9449 21.0685C16.9449 22.6193 18.2065 23.8809 19.7573 23.8809H25.6555C28.3692 23.8809 30.577 26.0886 30.577 28.8024C30.577 31.5161 28.3692 33.7238 25.6555 33.7238Z" fill="#59B35B"/>
</svg>
