<svg width="36" height="36" viewBox="0 0 36 36" fill="none" xmlns="http://www.w3.org/2000/svg">
<g clip-path="url(#clip0_370_2757)">
<path d="M35.2793 5.688C35.2793 2.952 33.0473 0.792 30.3833 0.792C27.6473 0.792 25.4873 3.024 25.4873 5.688C25.4873 8.424 30.3833 14.616 30.3833 14.616C30.3833 14.616 35.2793 8.424 35.2793 5.688ZM27.8633 5.76C27.8633 4.392 28.9433 3.312 30.3113 3.312C31.6793 3.312 32.7593 4.392 32.7593 5.76C32.7593 7.128 31.6793 8.208 30.3113 8.208C29.0153 8.208 27.8633 7.128 27.8633 5.76Z" fill="#59B35B"/>
<path d="M14.5433 3.024C9.79126 3.744 5.68726 6.48 3.23926 10.368H10.0793C11.0873 6.84 12.6713 4.248 14.5433 3.024Z" fill="#59B35B"/>
<path d="M30.3839 16.416C30.3839 16.416 24.3359 8.64 24.3359 5.688C24.3359 5.328 24.3359 4.968 24.4079 4.608C22.8239 3.816 21.0959 3.24 19.2959 2.952C21.1679 4.176 22.8239 6.84 23.7599 10.368H24.6239C24.9119 10.368 25.1999 10.656 25.1999 10.944C25.1999 11.232 24.9119 11.52 24.6239 11.52H24.0479C24.5519 13.608 24.8399 15.984 24.8399 18.576H33.2639C33.1919 16.92 32.9039 15.336 32.3999 13.824C31.8959 14.472 30.3839 16.416 30.3839 16.416Z" fill="#59B35B"/>
<path d="M24.7677 22.176C24.7677 22.464 24.4797 22.68 24.1917 22.68H24.1197C23.8317 22.68 23.6157 22.392 23.6157 22.104C23.6877 21.312 23.6877 20.52 23.7597 19.728H15.6237C15.3357 19.728 15.0477 19.44 15.0477 19.152C15.0477 18.864 15.3357 18.576 15.6237 18.576H23.7597C23.6877 16.056 23.3997 13.68 22.8957 11.52H11.0157C10.6557 12.96 10.3677 14.544 10.2237 16.2C10.2237 16.488 9.93573 16.704 9.64773 16.704C9.35973 16.704 9.14373 16.416 9.14373 16.128C9.28773 14.472 9.50373 12.96 9.86373 11.52H2.59173C1.43973 13.608 0.791727 15.984 0.719727 18.576H5.18373C5.47173 18.576 5.75973 18.864 5.75973 19.152C5.75973 19.44 5.47173 19.728 5.18373 19.728H0.719727C0.791727 22.248 1.43973 24.624 2.59173 26.784H6.40773C6.69573 26.784 6.98373 27.072 6.98373 27.36C6.98373 27.648 6.76773 27.936 6.40773 27.936H3.23973C5.68773 31.824 9.79173 34.632 14.5437 35.352C13.3197 34.56 12.1677 33.12 11.3037 31.176C11.1597 30.888 11.3037 30.528 11.5917 30.456C11.8797 30.312 12.2397 30.456 12.3117 30.744C13.6077 33.48 15.2637 34.992 16.9197 34.992C18.6477 34.992 20.3037 33.48 21.5277 30.744C21.6717 30.456 22.0317 30.384 22.2477 30.456C22.5357 30.6 22.6797 30.888 22.5357 31.176C21.5997 33.192 20.4477 34.56 19.2237 35.352C24.0477 34.704 28.2237 31.896 30.6717 27.936H28.3677C28.0797 27.936 27.7917 27.648 27.7917 27.36C27.7917 27.072 28.0797 26.784 28.3677 26.784H31.3197C32.4717 24.696 33.1197 22.32 33.1917 19.728H24.8397C24.8397 20.52 24.8397 21.384 24.7677 22.176ZM10.3677 29.304C10.3677 29.304 6.40773 24.336 6.40773 22.104C6.40773 19.944 8.20773 18.144 10.3677 18.144C12.5277 18.144 14.3277 19.944 14.3277 22.104C14.3277 24.336 10.3677 29.304 10.3677 29.304ZM20.2317 27.792H14.3997C14.1117 27.792 13.8237 27.504 13.8237 27.216C13.8237 26.928 14.0397 26.64 14.3997 26.64H20.2317C20.5197 26.64 20.8077 26.928 20.8077 27.216C20.7357 27.576 20.5197 27.792 20.2317 27.792ZM26.4957 26.352C26.4957 27.576 24.3357 30.312 24.3357 30.312C24.3357 30.312 22.1037 27.576 22.1037 26.352C22.1037 25.128 23.1117 24.12 24.3357 24.12C25.5597 24.192 26.4957 25.128 26.4957 26.352Z" fill="#59B35B"/>
<path d="M11.3037 10.368H22.6077C21.3837 6.192 19.2957 3.312 16.9917 3.312C14.6157 3.384 12.5277 6.192 11.3037 10.368Z" fill="#59B35B"/>
<path d="M10.3676 24.192C11.481 24.192 12.3836 23.2894 12.3836 22.176C12.3836 21.0626 11.481 20.16 10.3676 20.16C9.25416 20.16 8.35156 21.0626 8.35156 22.176C8.35156 23.2894 9.25416 24.192 10.3676 24.192Z" fill="#59B35B"/>
<path d="M18 18.792C18.4374 18.792 18.792 18.4374 18.792 18C18.792 17.5626 18.4374 17.208 18 17.208C17.5626 17.208 17.208 17.5626 17.208 18C17.208 18.4374 17.5626 18.792 18 18.792Z" fill="#59B35B"/>
</g>
<defs>
<clipPath id="clip0_370_2757">
<rect width="36" height="36" fill="white"/>
</clipPath>
</defs>
</svg>
