<svg width="36" height="36" viewBox="0 0 36 36" fill="none" xmlns="http://www.w3.org/2000/svg">
<path d="M23.625 16.875H3.375C2.75365 16.875 2.25 17.3787 2.25 18V30.375C2.25 30.9963 2.75365 31.5 3.375 31.5H5.625C5.625 29.6389 7.13892 28.125 9 28.125C10.8611 28.125 12.375 29.6389 12.375 31.5H23.625C24.2463 31.5 24.75 30.9963 24.75 30.375V18C24.75 17.3787 24.2463 16.875 23.625 16.875Z" fill="#59B35B"/>
<path d="M9 15.75H7.875C7.25372 15.75 6.75 15.2468 6.75 14.625C6.75 14.0032 7.25372 13.5 7.875 13.5H9C9.62128 13.5 10.125 14.0032 10.125 14.625C10.125 15.2468 9.62128 15.75 9 15.75Z" fill="#59B35B"/>
<path d="M13.5 15.75H12.375C11.7537 15.75 11.25 15.2468 11.25 14.625C11.25 14.0032 11.7537 13.5 12.375 13.5H13.5C14.1213 13.5 14.625 14.0032 14.625 14.625C14.625 15.2468 14.1213 15.75 13.5 15.75Z" fill="#59B35B"/>
<path d="M4.5 15.75H3.375C2.75372 15.75 2.25 15.2468 2.25 14.625C2.25 14.0032 2.75372 13.5 3.375 13.5H4.5C5.12128 13.5 5.625 14.0032 5.625 14.625C5.625 15.2468 5.12128 15.75 4.5 15.75Z" fill="#59B35B"/>
<path d="M28.125 15.75H27C26.3787 15.75 25.875 15.2468 25.875 14.625C25.875 14.0032 26.3787 13.5 27 13.5H28.125C28.7463 13.5 29.25 14.0032 29.25 14.625C29.25 15.2468 28.7463 15.75 28.125 15.75Z" fill="#59B35B"/>
<path d="M23.625 15.75H22.5C21.8787 15.75 21.375 15.2468 21.375 14.625C21.375 14.0032 21.8787 13.5 22.5 13.5H23.625C24.2463 13.5 24.75 14.0032 24.75 14.625C24.75 15.2468 24.2463 15.75 23.625 15.75Z" fill="#59B35B"/>
<path d="M32.625 15.75H31.5C30.8787 15.75 30.375 15.2468 30.375 14.625C30.375 14.0032 30.8787 13.5 31.5 13.5H32.625C33.2463 13.5 33.75 14.0032 33.75 14.625C33.75 15.2468 33.2463 15.75 32.625 15.75Z" fill="#59B35B"/>
<path d="M25.875 20.25H30.8979C31.2741 20.25 31.6253 20.438 31.834 20.751L33.75 23.625H25.875V20.25Z" fill="#59B35B"/>
<path d="M9 33.75C10.2426 33.75 11.25 32.7426 11.25 31.5C11.25 30.2574 10.2426 29.25 9 29.25C7.75736 29.25 6.75 30.2574 6.75 31.5C6.75 32.7426 7.75736 33.75 9 33.75Z" fill="#59B35B"/>
<path d="M25.875 24.75V29.0028C26.4735 28.4631 27.2575 28.125 28.125 28.125C29.9861 28.125 31.5 29.6389 31.5 31.5H32.625C33.2463 31.5 33.75 30.9963 33.75 30.375V24.75H25.875Z" fill="#59B35B"/>
<path d="M28.125 33.75C29.3676 33.75 30.375 32.7426 30.375 31.5C30.375 30.2574 29.3676 29.25 28.125 29.25C26.8824 29.25 25.875 30.2574 25.875 31.5C25.875 32.7426 26.8824 33.75 28.125 33.75Z" fill="#59B35B"/>
<path d="M18 2.25041C15.5171 2.25412 13.5 4.30595 13.5 6.86852C13.5 11.0116 15.9111 14.0653 17.204 15.405C17.4246 15.6336 17.7124 15.7486 18 15.7496C18.2876 15.7486 18.5754 15.634 18.796 15.4054C20.0889 14.0657 22.5 11.012 22.5 6.86893C22.5 4.30637 20.4829 2.25412 18 2.25041ZM18 9C16.7574 9 15.75 7.99262 15.75 6.75C15.75 5.50731 16.7574 4.5 18 4.5C19.2426 4.5 20.25 5.50731 20.25 6.75C20.25 7.99262 19.2426 9 18 9Z" fill="#59B35B"/>
<path d="M18 7.875C18.6213 7.875 19.125 7.37132 19.125 6.75C19.125 6.12868 18.6213 5.625 18 5.625C17.3787 5.625 16.875 6.12868 16.875 6.75C16.875 7.37132 17.3787 7.875 18 7.875Z" fill="#59B35B"/>
</svg>
