<svg width="36" height="36" viewBox="0 0 36 36" fill="none" xmlns="http://www.w3.org/2000/svg">
<path d="M20.2254 17.2135C22.7719 16.8938 25.2829 17.9186 26.8932 19.9023C27.0114 20.0479 27.2224 20.0798 27.3738 19.9692C28.1033 19.4361 28.7313 18.7702 29.2238 18.0015C32.2928 13.2131 28.8848 6.75 23.0623 6.75C19.2629 6.75 16.1313 9.66171 15.7828 13.3711C15.7687 13.521 15.8515 13.664 15.9892 13.7249C17.5786 14.4278 18.9365 15.5861 19.8903 17.0587C19.9626 17.1704 20.0934 17.23 20.2254 17.2135Z" fill="#59B35B"/>
<path d="M23.0625 5.625C23.6839 5.625 24.1875 5.12128 24.1875 4.5V2.25C24.1875 1.62872 23.6839 1.125 23.0625 1.125C22.4411 1.125 21.9375 1.62872 21.9375 2.25V4.5C21.9375 5.12128 22.4411 5.625 23.0625 5.625Z" fill="#59B35B"/>
<path d="M34.875 12.9375H32.625C32.0036 12.9375 31.5 13.4412 31.5 14.0625C31.5 14.6838 32.0036 15.1875 32.625 15.1875H34.875C35.4964 15.1875 36 14.6838 36 14.0625C36 13.4412 35.4964 12.9375 34.875 12.9375Z" fill="#59B35B"/>
<path d="M30.6197 20.0287C30.1805 19.5894 29.4681 19.5894 29.0288 20.0287C28.5894 20.4681 28.5894 21.1804 29.0288 21.6197L30.6197 23.2106C30.8394 23.4304 31.1272 23.5402 31.4152 23.5402C32.4085 23.5402 32.9213 22.3303 32.2106 21.6197L30.6197 20.0287Z" fill="#59B35B"/>
<path d="M15.5055 8.09625C15.9448 8.53563 16.657 8.53563 17.0964 8.09625C17.5358 7.65686 17.5358 6.9446 17.0964 6.50528L15.5055 4.91432C15.0663 4.47501 14.354 4.47501 13.9145 4.91432C13.4751 5.35371 13.4751 6.06597 13.9145 6.50528L15.5055 8.09625Z" fill="#59B35B"/>
<path d="M29.8245 8.4257C30.1124 8.4257 30.4003 8.31588 30.6199 8.09615L32.2109 6.50519C32.6503 6.06581 32.6503 5.35354 32.2109 4.91423C31.7716 4.47492 31.0593 4.47484 30.6199 4.91423L29.0291 6.50526C28.3182 7.21605 28.8313 8.4257 29.8245 8.4257Z" fill="#59B35B"/>
<path d="M26.1935 25.5937C27.0608 21.3206 22.5857 18.026 18.7907 19.9734C17.9565 17.2207 15.4 15.2168 12.375 15.2168C8.44917 15.2168 5.3498 18.5791 5.69883 22.5192C2.51002 22.7683 0 25.4347 0 28.6875C0 32.0952 2.76082 34.875 6.1875 34.875H26.2969C28.8598 34.875 30.9375 32.7973 30.9375 30.2344C30.9375 27.7848 29.01 25.5937 26.1935 25.5937Z" fill="#59B35B"/>
</svg>
