<svg width="36" height="36" viewBox="0 0 36 36" fill="none" xmlns="http://www.w3.org/2000/svg">
<g clip-path="url(#clip0_271_3349)">
<path d="M3.16406 16.9453H13.7812C15.526 16.9453 16.9453 15.526 16.9453 13.7812V3.16406C16.9453 1.41933 15.526 0 13.7812 0H3.16406C1.41933 0 0 1.41933 0 3.16406V13.7812C0 15.526 1.41933 16.9453 3.16406 16.9453ZM5.34375 7.45312H7.45312V5.34375C7.45312 4.76079 7.92485 4.28906 8.50781 4.28906C9.09077 4.28906 9.5625 4.76079 9.5625 5.34375V7.45312H11.6719C12.2548 7.45312 12.7266 7.92485 12.7266 8.50781C12.7266 9.09077 12.2548 9.5625 11.6719 9.5625H9.5625V11.6719C9.5625 12.2548 9.09077 12.7266 8.50781 12.7266C7.92485 12.7266 7.45312 12.2548 7.45312 11.6719V9.5625H5.34375C4.76079 9.5625 4.28906 9.09077 4.28906 8.50781C4.28906 7.92485 4.76079 7.45312 5.34375 7.45312Z" fill="#59B35B"/>
<path d="M32.8359 0H22.2188C20.474 0 19.0547 1.41933 19.0547 3.16406V13.7812C19.0547 15.526 20.474 16.9453 22.2188 16.9453H32.8359C34.5807 16.9453 36 15.526 36 13.7812V3.16406C36 1.41933 34.5807 0 32.8359 0ZM30.7266 9.5625H24.3281C23.7452 9.5625 23.2734 9.09077 23.2734 8.50781C23.2734 7.92485 23.7452 7.45312 24.3281 7.45312H30.7266C31.3095 7.45312 31.7812 7.92485 31.7812 8.50781C31.7812 9.09077 31.3095 9.5625 30.7266 9.5625Z" fill="#59B35B"/>
<path d="M32.8359 19.0547H22.2188C20.474 19.0547 19.0547 20.474 19.0547 22.2188V32.8359C19.0547 34.5807 20.474 36 22.2188 36H32.8359C34.5807 36 36 34.5807 36 32.8359V22.2188C36 20.474 34.5807 19.0547 32.8359 19.0547ZM30.7266 30.6562H24.3281C23.7452 30.6562 23.2734 30.1845 23.2734 29.6016C23.2734 29.0186 23.7452 28.5469 24.3281 28.5469H30.7266C31.3095 28.5469 31.7812 29.0186 31.7812 29.6016C31.7812 30.1845 31.3095 30.6562 30.7266 30.6562ZM30.7266 26.4375H24.3281C23.7452 26.4375 23.2734 25.9658 23.2734 25.3828C23.2734 24.7999 23.7452 24.3281 24.3281 24.3281H30.7266C31.3095 24.3281 31.7812 24.7999 31.7812 25.3828C31.7812 25.9658 31.3095 26.4375 30.7266 26.4375Z" fill="#59B35B"/>
<path d="M16.9453 32.8359V22.2188C16.9453 20.474 15.526 19.0547 13.7812 19.0547H3.16406C1.41933 19.0547 0 20.474 0 22.2188V32.8359C0 34.5807 1.41933 36 3.16406 36H13.7812C15.526 36 16.9453 34.5807 16.9453 32.8359ZM11.4906 28.9836C11.9026 29.3955 11.9026 30.063 11.4906 30.475C11.0786 30.8869 10.4112 30.8869 9.99921 30.475L8.50781 28.9836L7.01641 30.475C6.60445 30.8869 5.93698 30.8869 5.52502 30.475C5.11305 30.063 5.11305 29.3955 5.52502 28.9836L7.01641 27.4922L5.52502 26.0008C5.11305 25.5888 5.11305 24.9214 5.52502 24.5094C5.93698 24.0974 6.60445 24.0974 7.01641 24.5094L8.50781 26.0008L9.99921 24.5094C10.4112 24.0974 11.0786 24.0974 11.4906 24.5094C11.9026 24.9214 11.9026 25.5888 11.4906 26.0008L9.99921 27.4922L11.4906 28.9836Z" fill="#59B35B"/>
</g>
<defs>
<clipPath id="clip0_271_3349">
<rect width="36" height="36" fill="white"/>
</clipPath>
</defs>
</svg>
