<svg width="36" height="36" viewBox="0 0 36 36" fill="none" xmlns="http://www.w3.org/2000/svg">
<path d="M14.22 16.725C14.5928 16.8811 14.9795 17.0016 15.375 17.085V31.365C15.1325 31.3025 14.8964 31.2171 14.67 31.11L5.67 27.105C4.87534 26.7513 4.20024 26.1748 3.72637 25.4454C3.25251 24.716 3.00021 23.8648 3 22.995V13.005C3.00119 12.6044 3.0567 12.2057 3.165 11.82L14.22 16.725ZM28.695 9.84001C28.3047 9.44056 27.8413 9.11975 27.33 8.89501L18.33 4.89001C17.7548 4.63045 17.131 4.49622 16.5 4.49622C15.869 4.49622 15.2452 4.63045 14.67 4.89001L5.67 8.89501C5.15872 9.11975 4.69533 9.44056 4.305 9.84001L15.12 14.655C15.5545 14.8478 16.0246 14.9475 16.5 14.9475C16.9754 14.9475 17.4455 14.8478 17.88 14.655L28.695 9.84001ZM25.05 17.8395C26.4877 17.4932 27.9946 17.5656 29.3925 18.048C29.4596 18.0717 29.5313 18.0792 29.6018 18.0699C29.6723 18.0605 29.7396 18.0346 29.7982 17.9942C29.8567 17.9538 29.9049 17.9001 29.9387 17.8375C29.9724 17.7749 29.9909 17.7051 29.9925 17.634V13.005C29.9913 12.6044 29.9358 12.2057 29.8275 11.82L18.7725 16.725C18.3973 16.8743 18.0111 16.9947 17.6175 17.085V31.365L17.6715 31.401L20.211 30.267C20.2699 30.2391 20.322 30.1988 20.3638 30.1488C20.4056 30.0988 20.436 30.0404 20.453 29.9775C20.47 29.9146 20.4731 29.8487 20.4621 29.7845C20.4512 29.7203 20.4264 29.6592 20.3895 29.6055C19.7068 28.5692 19.2837 27.3837 19.156 26.1493C19.0283 24.9149 19.1998 23.6679 19.6559 22.5137C20.112 21.3596 20.8394 20.3323 21.7765 19.5187C22.7135 18.7051 23.8328 18.1291 25.0395 17.8395H25.05ZM33.7935 32.2935C33.6893 32.3982 33.5654 32.4812 33.4289 32.5379C33.2925 32.5946 33.1462 32.6238 32.9985 32.6238C32.8508 32.6238 32.7045 32.5946 32.5681 32.5379C32.4316 32.4812 32.3077 32.3982 32.2035 32.2935L29.8785 29.9685C28.9881 30.5555 27.945 30.8685 26.8785 30.8685C25.6491 30.8732 24.4534 30.4673 23.4808 29.7153C22.5083 28.9633 21.8146 27.9081 21.5098 26.7171C21.205 25.5261 21.3065 24.2674 21.7983 23.1406C22.29 22.0139 23.1438 21.0835 24.2243 20.4971C25.3048 19.9106 26.5502 19.7017 27.7629 19.9033C28.9756 20.105 30.0863 20.7057 30.9189 21.6102C31.7515 22.5148 32.2583 23.6714 32.3589 24.8967C32.4596 26.1219 32.1483 27.3457 31.4745 28.374L33.798 30.699C33.903 30.8036 33.9862 30.928 34.0429 31.0649C34.0996 31.2019 34.1287 31.3487 34.1284 31.4969C34.1281 31.6451 34.0985 31.7918 34.0413 31.9285C33.9841 32.0652 33.9004 32.1893 33.795 32.2935H33.7935ZM30.123 25.374C30.1233 24.731 29.9329 24.1023 29.5758 23.5676C29.2188 23.0328 28.7111 22.6159 28.1171 22.3697C27.5231 22.1235 26.8694 22.059 26.2387 22.1844C25.6081 22.3098 25.0287 22.6194 24.5741 23.0741C24.1194 23.5287 23.8098 24.1081 23.6844 24.7387C23.559 25.3694 23.6235 26.0231 23.8697 26.6171C24.1159 27.2111 24.5328 27.7188 25.0676 28.0758C25.6023 28.4329 26.231 28.6233 26.874 28.623C27.7356 28.6222 28.5617 28.2797 29.171 27.6706C29.7804 27.0615 30.1218 26.2356 30.123 25.374Z" fill="#59B35B"/>
</svg>
