<svg width="36" height="36" viewBox="0 0 36 36" fill="none" xmlns="http://www.w3.org/2000/svg">
<g clip-path="url(#clip0_271_3355)">
<path d="M18 0C12.7576 0 8.50781 4.24976 8.50781 9.49219C8.50781 14.7346 12.7576 18.9844 18 18.9844C23.2424 18.9844 27.4922 14.7346 27.4922 9.49219C27.4922 4.24976 23.2424 0 18 0ZM19.0547 14.7656H16.9453V8.4375H19.0547V14.7656ZM19.0547 6.32812H16.9453V4.21875H19.0547V6.32812Z" fill="#59B35B"/>
<path d="M16.9453 20.9929C11.3961 20.4831 6.95524 16.0985 6.45188 10.5469H4.28906V29.6719H12.9161C14.3956 29.6719 15.8318 30.2448 16.9453 31.2194V20.9929Z" fill="#59B35B"/>
<path d="M29.5481 10.5469C29.0448 16.0985 24.6039 20.4831 19.0547 20.9929V31.2194C20.1682 30.2448 21.6044 29.6719 23.0839 29.6719H31.7109V10.5469H29.5481Z" fill="#59B35B"/>
<path d="M33.8203 12.6562V31.7812H23.0917C22.021 31.7812 20.9942 32.2066 20.2371 32.9636L18 35.2008L15.7629 32.9637C15.0058 32.2066 13.979 31.7812 12.9083 31.7812H2.17969V12.6562H0V33.8906L10.3788 33.8962C12.2825 33.8973 14.1079 34.6539 15.4539 36H20.5461C20.7591 35.8519 22.3021 33.8906 25.1933 33.8906H36V12.6562H33.8203Z" fill="#59B35B"/>
</g>
<defs>
<clipPath id="clip0_271_3355">
<rect width="36" height="36" fill="white"/>
</clipPath>
</defs>
</svg>
