<svg width="36" height="36" viewBox="0 0 36 36" fill="none" xmlns="http://www.w3.org/2000/svg">
<g clip-path="url(#clip0_271_3363)">
<path d="M32.9446 21.1187H30.9398C30.2419 21.1187 29.6741 20.5483 29.6741 19.847H27.5647C27.5647 21.7114 29.0787 23.2281 30.9398 23.2281H32.9446C33.4664 23.2281 33.8909 23.6526 33.8909 24.1744C33.8909 24.6961 33.4664 25.1206 32.9446 25.1206H20.5273V27.23H32.9446C34.6295 27.23 36.0002 25.8592 36.0002 24.1744C36.0002 22.4895 34.6295 21.1187 32.9446 21.1187Z" fill="#59B35B"/>
<path d="M5.75879 28.9908C7.01316 28.9908 7.69041 29.3613 8.23456 29.6588C8.68519 29.9053 8.9829 30.0681 9.69819 30.0681C10.4135 30.0681 10.7112 29.9053 11.1619 29.6588C11.706 29.3613 12.3833 28.9908 13.6377 28.9908C14.2753 28.9908 14.7633 29.0867 15.1609 29.2199L16.2199 25.5754L10.2335 23.8007L4.25586 25.5751L5.25493 29.0131C5.41236 28.9992 5.579 28.9908 5.75879 28.9908Z" fill="#59B35B"/>
<path d="M14.2847 22.8018L13.6282 18.3599H11.288V15.7943H9.17863V18.3599H6.8477L6.19141 22.8003L10.2331 21.6006L14.2847 22.8018Z" fill="#59B35B"/>
<path d="M28.4199 9.99919C29.7301 9.99919 30.796 8.93333 30.796 7.62319C30.796 6.31306 29.7301 5.24719 28.4199 5.24719C27.1098 5.24719 26.0439 6.31306 26.0439 7.62319C26.0439 8.93333 27.1098 9.99919 28.4199 9.99919Z" fill="#59B35B"/>
<path d="M28.3915 17.7917C28.3915 17.7917 36 13.3306 36 7.59572C36 3.40741 32.5925 0 28.4043 0C24.2161 0 20.8086 3.40741 20.8086 7.59572C20.8086 13.1342 28.3915 17.7917 28.3915 17.7917ZM28.4199 3.1377C30.8932 3.1377 32.9054 5.14983 32.9054 7.62307C32.9054 10.0963 30.8932 12.1084 28.4199 12.1084C25.9467 12.1084 23.9345 10.0963 23.9345 7.62307C23.9345 5.14983 25.9468 3.1377 28.4199 3.1377Z" fill="#59B35B"/>
<path d="M17.7564 32.2073C16.4747 32.2073 15.7825 31.8286 15.2262 31.5245C14.776 31.2782 14.4507 31.1003 13.7083 31.1003C12.9658 31.1003 12.6406 31.2782 12.1904 31.5245C11.6341 31.8287 10.9418 32.2073 9.66031 32.2073C8.37879 32.2073 7.68649 31.8286 7.13032 31.5245C6.68011 31.2783 6.35484 31.1003 5.61248 31.1003C4.86998 31.1003 4.54472 31.2782 4.09451 31.5245C3.53827 31.8286 2.84597 32.2073 1.56438 32.2073C0.908648 32.2073 0.407883 32.1079 0 31.9704V36H20.3875V31.4695C20.3543 31.4874 20.3209 31.5056 20.2866 31.5244C19.7302 31.8286 19.038 32.2073 17.7564 32.2073Z" fill="#59B35B"/>
</g>
<defs>
<clipPath id="clip0_271_3363">
<rect width="36" height="36" fill="white"/>
</clipPath>
</defs>
</svg>
