<svg width="36" height="36" viewBox="0 0 36 36" fill="none" xmlns="http://www.w3.org/2000/svg">
<path d="M4.19961 19.9979H14.9336C15.2156 18.45 15.9536 17.028 17.0936 15.8939C18.5696 14.4119 20.5376 13.6019 22.6316 13.6019C24.7196 13.6019 26.6876 14.4119 28.1636 15.8939C28.2476 15.978 28.3316 16.0679 28.4096 16.1579V5.39395C28.4096 5.06395 28.1456 4.79395 27.8096 4.79395H4.19961C3.86962 4.79395 3.59961 5.06395 3.59961 5.39395V19.3979C3.59961 19.728 3.86962 19.9979 4.19961 19.9979ZM22.1996 8.18993C22.1996 7.85994 22.4696 7.58993 22.7996 7.58993C23.1356 7.58993 23.3996 7.85994 23.3996 8.18993V12.0899C23.3996 12.42 23.1356 12.6899 22.7996 12.6899C22.4696 12.6899 22.1996 12.42 22.1996 12.0899V8.18993ZM17.6696 8.18993C17.6696 7.85994 17.9396 7.58993 18.2696 7.58993C18.6056 7.58993 18.8696 7.85994 18.8696 8.18993V13.056C18.8696 13.386 18.6056 13.656 18.2696 13.656C17.9396 13.656 17.6696 13.386 17.6696 13.056V8.18993ZM13.1396 8.18993C13.1396 7.85994 13.4096 7.58993 13.7396 7.58993C14.0696 7.58993 14.3396 7.85994 14.3396 8.18993V16.6079C14.3396 16.9379 14.0696 17.2079 13.7396 17.2079C13.4096 17.2079 13.1396 16.9379 13.1396 16.6079V8.18993ZM8.60963 8.18993C8.60963 7.85994 8.8736 7.58993 9.20963 7.58993C9.53962 7.58993 9.80963 7.85994 9.80963 8.18993V16.6079C9.80963 16.9379 9.53962 17.2079 9.20963 17.2079C8.8736 17.2079 8.60963 16.9379 8.60963 16.6079V8.18993Z" fill="#59B35B"/>
<path d="M32.3995 28.9501C32.4055 28.3501 32.1715 27.7801 31.7455 27.36L28.6255 24.24C29.7715 21.7801 29.3395 18.768 27.3175 16.74C24.7315 14.154 20.5255 14.154 17.9395 16.74C15.3535 19.326 15.3535 23.532 17.9395 26.118C19.2295 27.4081 20.9275 28.0561 22.6255 28.0561C23.5855 28.0561 24.5455 27.84 25.4335 27.426L28.5535 30.546C28.9915 30.9841 29.5675 31.2061 30.1435 31.2061C30.7195 31.2061 31.3015 30.9841 31.7395 30.546C32.1655 30.1201 32.3995 29.5501 32.3995 28.9501ZM26.4655 25.266C24.3475 27.3841 20.9035 27.3841 18.7855 25.266C16.6675 23.154 16.6675 19.704 18.7855 17.5921C19.8475 16.5301 21.2335 16.002 22.6255 16.002C24.0175 16.002 25.4095 16.5301 26.4655 17.5921C28.5835 19.704 28.5835 23.154 26.4655 25.266Z" fill="#59B35B"/>
</svg>
