<svg width="188" height="33" viewBox="0 0 188 33" fill="none" xmlns="http://www.w3.org/2000/svg">
<g clip-path="url(#clip0_1_334)">
<path fill-rule="evenodd" clip-rule="evenodd" d="M184.516 26.6351C185.977 26.6351 187.036 26.282 187.952 25.7226V22.1329C187.322 22.4863 186.606 22.6916 185.805 22.6916C184.831 22.6916 184.402 22.1916 184.402 21.1618V14.4233H188V10.5978H184.402V6.56666H180.05V10.5978H178.218V14.4233H180.05V21.8974C180.05 25.5456 181.854 26.6351 184.517 26.6351H184.516ZM162.456 26.3701H166.807V17.5716C166.807 15.453 167.866 14.3644 169.527 14.3644C171.188 14.3644 172.161 15.4534 172.161 17.5716V26.3701H176.512V16.1594C176.512 12.54 174.594 10.3034 171.302 10.3034C169.097 10.3034 167.809 11.51 166.807 12.8341V4.88931H162.456V26.3703V26.3701ZM151.475 21.3674C149.356 21.3674 147.753 19.8966 147.753 17.7189C147.753 15.5117 149.356 14.011 151.475 14.011C153.594 14.011 155.225 15.5116 155.225 17.6596C155.225 19.8669 153.594 21.3673 151.475 21.3673V21.3674ZM150.96 31.1372C153.937 31.1372 156.142 30.4897 157.573 29.0186C158.86 27.6942 159.52 25.6345 159.52 22.8095V10.5976H155.168V12.6574C153.994 11.3334 152.591 10.3033 150.215 10.3033C146.694 10.3033 143.401 12.9517 143.401 17.6596C143.401 22.397 146.636 25.0754 150.215 25.0754C152.534 25.0754 153.937 24.104 155.225 22.5155V23.2804C155.225 26.1042 153.822 27.5767 150.845 27.5767C148.812 27.5767 147.238 27.0467 145.663 26.1345L144.174 29.4893C146.121 30.548 148.469 31.1372 150.96 31.1372ZM136.6 26.37H140.951V10.5976H136.6V26.37ZM136.486 8.86184H141.066V4.88916H136.486V8.86184ZM121.352 26.37H133.378L134.748 22.2498H125.76V5.77168H121.352V26.3698V26.37ZM104.015 26.37H108.366V17.5715C108.366 15.4528 109.426 14.3642 111.086 14.3642C112.746 14.3642 113.72 15.4528 113.72 17.5715V26.37H118.072V16.1592C118.072 12.5398 116.154 10.3033 112.861 10.3033C110.657 10.3033 109.368 11.5098 108.366 12.8339V10.5976H104.015V26.37ZM90.944 17.248C91.2876 15.2177 92.4612 13.8931 94.2644 13.8931C96.0972 13.8931 97.2426 15.2468 97.5001 17.248H90.944ZM94.6937 26.7231C97.471 26.7231 99.5325 25.6046 100.964 23.7804L98.4735 21.5146C97.2714 22.6623 96.2115 23.1331 94.7517 23.1331C92.8047 23.1331 91.4308 22.0737 91.0008 20.043H101.68C101.708 19.6315 101.737 19.2193 101.737 18.866C101.737 14.3935 99.3891 10.3031 94.2644 10.3031C89.7987 10.3031 86.6784 14.0108 86.6784 18.513C86.6784 23.3978 90.0848 26.7229 94.6937 26.7229V26.7231ZM74.3515 17.248C74.6951 15.2177 75.8688 13.8931 77.6725 13.8931C79.5047 13.8931 80.6501 15.2468 80.9076 17.248H74.3515ZM78.1019 26.7231C80.8786 26.7231 82.94 25.6046 84.3714 23.7804L81.8813 21.5146C80.6784 22.6623 79.6189 23.1331 78.1592 23.1331C76.212 23.1331 74.8383 22.0737 74.4083 20.043H85.0872C85.1162 19.6315 85.1447 19.2193 85.1447 18.866C85.1447 14.3935 82.7966 10.3031 77.6725 10.3031C73.2062 10.3031 70.086 14.0108 70.086 18.513C70.086 23.3978 73.4927 26.7229 78.1017 26.7229L78.1019 26.7231ZM60.2498 26.37H64.6011V20.5437C64.6011 16.7774 66.3764 14.9824 69.2682 14.9824H69.4967V10.3033C66.9199 10.1858 65.4887 11.5986 64.6011 13.7753V10.5976H60.2498V26.37ZM48.8678 26.7231C52.5324 26.7231 55.3669 25.2515 57.4281 23.457V14.5113H48.7249V18.425H53.1623V21.3673C52.0459 22.1913 50.6143 22.6035 49.011 22.6035C45.4608 22.6035 42.9416 19.8374 42.9416 16.0705C42.9416 12.5105 45.4895 9.59717 48.6959 9.59717C51.0151 9.59717 52.3892 10.3622 53.9352 11.6866L56.7121 8.24372C54.6224 6.41918 52.4462 5.419 48.8393 5.419C42.7696 5.419 38.3324 10.2153 38.3324 16.0705C38.3324 22.2209 42.6266 26.7231 48.8678 26.7231Z" fill="#59B35B"/>
<path fill-rule="evenodd" clip-rule="evenodd" d="M12.0574 15.1128H8.5627C7.88644 13.1553 7.46499 11.2347 7.46499 9.44555C11.2424 9.44555 15.02 9.44555 18.7975 9.44555C18.7975 17.1125 14.0817 24.2349 9.39884 32.3818C4.71629 24.2349 0 17.1125 0 9.44555C0 4.27082 4.14217 0.0685464 9.27736 0H9.53278C14.0559 0.0664373 17.8051 3.33919 18.6285 7.65701H12.7091C12.076 6.47244 10.8328 5.66585 9.39884 5.66585C7.32056 5.66585 5.64243 7.35902 5.64243 9.4454C5.64243 13.0431 7.34606 17.1698 9.39884 21.0647C10.4307 19.1067 11.3739 17.0908 12.0574 15.1128Z" fill="#59B35B"/>
<path fill-rule="evenodd" clip-rule="evenodd" d="M27.7509 32.3818H28.6412V0H27.7509V32.3818Z" fill="#59B35B"/>
</g>
<defs>
<clipPath id="clip0_1_334">
<rect width="188" height="33" fill="white"/>
</clipPath>
</defs>
</svg>
