<svg width="24" height="41" viewBox="0 0 24 41" fill="none" xmlns="http://www.w3.org/2000/svg">
<path fill-rule="evenodd" clip-rule="evenodd" d="M15.3944 19.1349H10.9325C10.0691 16.6566 9.53103 14.2247 9.53103 11.9594C14.3539 11.9594 19.1769 11.9594 24 11.9594C24 21.6669 17.979 30.6848 12.0001 41C6.02159 30.6848 0 21.6669 0 11.9594C0 5.40747 5.28857 0.0867896 11.845 0H12.1711C17.946 0.0841192 22.7329 4.2279 23.7842 9.69488H16.2265C15.4182 8.19504 13.8309 7.17378 12.0001 7.17378C9.34662 7.17378 7.20404 9.31758 7.20404 11.9592C7.20404 16.5144 9.37917 21.7394 12.0001 26.6709C13.3175 24.1918 14.5218 21.6394 15.3944 19.1349Z" fill="#59B35B"/>
</svg>
