<svg width="20" height="34" viewBox="0 0 20 34" fill="none" xmlns="http://www.w3.org/2000/svg">
<path fill-rule="evenodd" clip-rule="evenodd" d="M12.8287 15.868H9.11045C8.39093 13.8128 7.94252 11.7961 7.94252 9.91757C11.9616 9.91757 15.9808 9.91757 20 9.91757C20 17.9677 14.9825 25.4459 10.0001 34C5.01799 25.4459 0 17.9677 0 9.91757C0 4.48424 4.40714 0.0719719 9.87082 0H10.1426C14.955 0.0697574 18.9441 3.50606 19.8202 8.03966H13.5221C12.8485 6.79589 11.5258 5.94899 10.0001 5.94899C7.78885 5.94899 6.00337 7.72678 6.00337 9.91741C6.00337 13.6949 7.81598 18.0278 10.0001 22.1174C11.098 20.0615 12.1015 17.9449 12.8287 15.868Z" fill="#59B35B"/>
</svg>
