<svg width="1564" height="448" viewBox="0 0 1564 448" fill="none" xmlns="http://www.w3.org/2000/svg">
<circle cx="1556" cy="64" r="8" fill="#4ADE4F"/>
<circle cx="1422" cy="93" r="8" fill="#4ADE4F"/>
<circle cx="1446" cy="142" r="8" fill="#4ADE4F"/>
<circle cx="1414" cy="31" r="8" fill="#4ADE4F"/>
<circle cx="1331" cy="269" r="8" fill="#4ADE4F"/>
<circle cx="1344" cy="150" r="8" fill="#4ADE4F"/>
<circle cx="1242" cy="85" r="8" fill="#4ADE4F"/>
<circle cx="1154" cy="89" r="8" fill="#4ADE4F"/>
<circle cx="1015" cy="204" r="8" fill="#4ADE4F"/>
<circle cx="1067" cy="220" r="8" fill="#4ADE4F"/>
<circle cx="963" cy="261" r="8" fill="#4ADE4F"/>
<circle cx="911" cy="338" r="8" fill="#4ADE4F"/>
<circle cx="1188" cy="163" r="8" fill="#4ADE4F"/>
<circle cx="895" cy="139" r="8" fill="#4ADE4F"/>
<circle cx="859" cy="155" r="8" fill="#4ADE4F"/>
<circle cx="754" cy="104" r="8" fill="#4ADE4F"/>
<circle cx="602" cy="41" r="8" fill="#4ADE4F"/>
<circle cx="846" cy="54" r="8" fill="#4ADE4F"/>
<circle cx="816" cy="62" r="8" fill="#4ADE4F"/>
<circle cx="987" cy="120" r="8" fill="#4ADE4F"/>
<circle cx="1051" cy="57" r="8" fill="#4ADE4F"/>
<circle cx="1143" cy="279" r="8" fill="#4ADE4F"/>
<circle cx="1061" cy="334" r="8" fill="#4ADE4F"/>
<circle cx="879" cy="286" r="8" fill="#4ADE4F"/>
<circle cx="841" cy="408" r="8" fill="#4ADE4F"/>
<circle cx="900" cy="428" r="8" fill="#4ADE4F"/>
<circle cx="770" cy="235" r="8" fill="#4ADE4F"/>
<circle cx="673" cy="235" r="8" fill="#4ADE4F"/>
<circle cx="380" cy="352" r="8" fill="#4ADE4F"/>
<circle cx="519" cy="440" r="8" fill="#4ADE4F"/>
<circle cx="315" cy="148" r="8" fill="#4ADE4F"/>
<circle cx="416" cy="145" r="8" fill="#4ADE4F"/>
<circle cx="410" cy="230" r="8" fill="#4ADE4F"/>
<circle cx="239" cy="34" r="8" fill="#4ADE4F"/>
<circle cx="121" cy="20" r="8" fill="#4ADE4F"/>
<circle cx="8" cy="42" r="8" fill="#4ADE4F"/>
<circle cx="350" cy="8" r="8" fill="#4ADE4F"/>
<circle cx="682" cy="368" r="8" fill="#4ADE4F"/>
<circle cx="778" cy="313" r="8" fill="#4ADE4F"/>
<circle cx="1192" cy="354" r="8" fill="#4ADE4F"/>
<circle cx="1192" cy="409" r="8" fill="#4ADE4F"/>
<circle cx="1255" cy="426" r="8" fill="#4ADE4F"/>
<circle cx="1242" cy="188" r="8" fill="#4ADE4F"/>
<circle cx="1096" cy="24" r="8" fill="#4ADE4F"/>
<circle cx="1207" cy="16" r="8" fill="#4ADE4F"/>
</svg>
