<svg width="50" height="50" viewBox="0 0 50 50" fill="none" xmlns="http://www.w3.org/2000/svg">
<circle cx="25" cy="25" r="25" fill="#5FBC74"/>
<g clip-path="url(#clip0_1_370)">
<path d="M32.0819 17.9018C30.1964 16.0268 27.7048 15 25.0337 15C19.5567 15 15.0898 19.442 15.0898 24.9107C15.0898 26.6518 15.5387 28.3482 16.4141 29.8661L15 35L20.275 33.6384C21.734 34.442 23.3726 34.8438 25.0337 34.8438C30.5107 34.8438 35 30.4018 35 24.933C35 22.2545 33.9675 19.7768 32.0819 17.9018ZM30.4882 28.9062C30.2637 29.5536 29.1414 30.1339 28.6027 30.2232C28.1313 30.2902 27.5253 30.3125 26.8519 30.1116C26.4478 29.9777 25.9315 29.8214 25.2581 29.5312C22.4523 28.3259 20.6117 25.5134 20.477 25.3348C20.3423 25.1339 19.3322 23.817 19.3322 22.4554C19.3322 21.0938 20.073 20.4018 20.3199 20.1339C20.5668 19.8438 20.881 19.7768 21.0606 19.7768C21.2402 19.7768 21.4422 19.7768 21.5993 19.7768C21.7789 19.7768 22.0034 19.7098 22.2278 20.2455C22.4523 20.8036 23.0135 22.1652 23.0808 22.2991C23.1481 22.433 23.193 22.6116 23.1033 22.7902C23.0135 22.9911 22.9686 23.1027 22.8339 23.2589C22.6768 23.4152 22.5421 23.6161 22.4074 23.75C22.2727 23.8839 22.138 24.0402 22.2952 24.308C22.4523 24.5759 23.0135 25.4911 23.844 26.2277C24.899 27.1875 25.8193 27.4777 26.0887 27.6116C26.358 27.7455 26.5376 27.7232 26.6947 27.5446C26.8519 27.3438 27.3906 26.7188 27.5701 26.4509C27.7497 26.183 27.9517 26.2277 28.1987 26.317C28.4456 26.4062 29.8373 27.0759 30.1066 27.2098C30.3984 27.3438 30.578 27.4107 30.6453 27.5893C30.7127 27.7009 30.7127 28.2589 30.4882 28.9062Z" fill="white"/>
</g>
<defs>
<clipPath id="clip0_1_370">
<rect width="20" height="20" fill="white" transform="translate(15 15)"/>
</clipPath>
</defs>
</svg>
