<svg width="50" height="50" viewBox="0 0 50 50" fill="none" xmlns="http://www.w3.org/2000/svg">
<circle cx="25" cy="25" r="25" fill="#2F80ED"/>
<g clip-path="url(#clip0_1_365)">
<path d="M31.5469 17.178L13.7832 23.6296C13.7832 23.6296 12.9404 23.8938 13.0068 24.3854C13.0731 24.8769 13.7566 25.1043 13.7566 25.1043L18.2224 26.4991L18.2291 26.5052V26.4991L28.9524 20.1888C28.9524 20.1888 29.5695 19.8385 29.5496 20.1888C29.5496 20.1888 29.6624 20.2502 29.3306 20.539C28.9988 20.8278 20.9033 27.562 20.9033 27.562L20.89 27.6911L28.176 32.8647C29.3903 33.3562 29.8349 32.3301 29.8349 32.3301L33.0001 17.5651C33.0001 16.582 31.5403 17.178 31.5469 17.178Z" fill="white"/>
<path d="M23.6768 29.6697L20.7903 32.1091C20.7903 32.1091 20.5647 32.2688 20.3192 32.1705L20.8699 27.6421" fill="white"/>
</g>
<defs>
<clipPath id="clip0_1_365">
<rect width="20" height="16" fill="white" transform="translate(13 17)"/>
</clipPath>
</defs>
</svg>
