<svg width="1911" height="517" viewBox="0 0 1911 517" fill="none" xmlns="http://www.w3.org/2000/svg">
<path d="M222 446.825C229.608 450.84 236.684 455.757 244.5 459.381C271.976 472.12 300.592 485.066 330 492.269C361.99 500.105 376.942 504.395 410 503.825C419.912 503.654 444.408 498.595 451.944 492.269C464.715 481.552 474.507 461.083 467 444.714C461.078 431.802 451.589 424.331 437.667 425.047C428.085 425.54 418.506 426.46 412.889 435.269C402.393 451.729 412.319 478.216 426.944 488.936C452.614 507.75 487.949 514.825 519.222 514.825C538.659 514.825 557.404 513.363 576.333 508.658C611.558 499.904 646.148 487.617 678 470.825C695.585 461.555 714.567 448.686 730 435.825" stroke="#E6E6E6" stroke-width="3" stroke-linecap="round" stroke-dasharray="8 8"/>
<path d="M1338 66.8045C1361.78 45.5107 1392.11 34.5544 1422.89 28.0267C1446.5 23.0196 1470.62 21.3953 1494.72 22.1934C1547.95 23.9559 1599.04 44.9837 1649 61.4712C1676.52 70.5534 1703.43 78.3952 1732 83.1379C1760.84 87.9254 1790.41 87.2898 1819.56 86.5823C1842.63 86.022 1862.3 82.3292 1883.44 73.1379C1892.1 69.3728 1900.56 65.0269 1909 60.8045" stroke="#E6E6E6" stroke-width="3" stroke-linecap="round" stroke-dasharray="8 8"/>
<path d="M195 446.265C171.222 467.559 140.894 478.515 110.111 485.043C86.4983 490.05 62.3821 491.674 38.2778 490.876C-14.9493 489.113 -66.0442 468.086 -116 451.598C-143.518 442.516 -170.428 434.674 -199 429.931C-227.842 425.144 -257.414 425.779 -286.556 426.487C-309.633 427.047 -329.304 430.74 -350.444 439.931C-359.104 443.697 -367.555 448.042 -376 452.265" stroke="#E6E6E6" stroke-width="3" stroke-linecap="round" stroke-dasharray="8 8"/>
<path d="M1884 432.804C1860.22 411.51 1829.89 400.554 1799.11 394.026C1775.5 389.019 1751.38 387.395 1727.28 388.193C1674.05 389.955 1622.96 410.983 1573 427.471C1545.48 436.553 1518.57 444.395 1490 449.137C1461.16 453.925 1431.59 453.289 1402.44 452.582C1379.37 452.022 1359.7 448.329 1338.56 439.137C1329.9 435.372 1321.44 431.026 1313 426.804" stroke="#E6E6E6" stroke-width="3" stroke-linecap="round" stroke-dasharray="8 8"/>
<path d="M233 76.0579C269.261 34.9023 364.595 0.861642 415 2.02917C480.732 3.55171 484.413 7.53351 548 25.98C576.466 34.2381 614.325 53.9268 641 67.3487C667.363 80.6136 717.208 123.094 741 141.376C760.423 156.302 784.495 168.515 807 178C861 200.76 903.678 210.21 956 220.848C1003.79 230.562 1065.52 235 1114 235C1158.85 235 1181.67 229.563 1226 220.848C1242.06 217.689 1272.95 206.074 1287 196.898" stroke="#E6E6E6" stroke-width="3" stroke-linecap="round" stroke-dasharray="8 8"/>
<path d="M795 387C824.094 414.133 855.842 437.603 891.889 454.889C934.959 475.543 983.366 487.052 1030.89 490.889C1094.38 496.015 1151.92 480.602 1211 460C1238.32 450.475 1267.56 431.701 1293 418" stroke="#E6E6E6" stroke-width="3" stroke-linecap="round" stroke-dasharray="8 8"/>
</svg>
