<svg width="61" height="104" viewBox="0 0 61 104" fill="none" xmlns="http://www.w3.org/2000/svg">
<path fill-rule="evenodd" clip-rule="evenodd" d="M38.549 48.1021H27.376C25.2139 41.8719 23.8665 35.7587 23.8665 30.0641C35.9433 30.0641 48.0206 30.0641 60.098 30.0641C60.098 54.4671 45.0208 77.1367 30.0492 103.067C15.0786 77.1367 0 54.4671 0 30.0641C0 13.5935 13.243 0.218175 29.6608 0H30.4774C44.9384 0.211462 56.9251 10.6283 59.5576 24.3714H40.6324C38.6084 20.601 34.6338 18.0338 30.0492 18.0338C23.4047 18.0338 18.0395 23.4229 18.0395 30.0636C18.0395 41.5147 23.4862 54.6493 30.0492 67.0465C33.3482 60.8143 36.3638 54.3981 38.549 48.1021Z" fill="#BFD200"/>
</svg>
