<svg width="95" height="130" viewBox="0 0 95 130" fill="none" xmlns="http://www.w3.org/2000/svg">
<path d="M0 47.3401C0 47.5519 0 47.7637 0 47.9756C0.425056 91.9796 47.5 130 47.5 130C47.5 130 94.5749 91.9796 95 47.9756C95 47.7637 95 47.5519 95 47.3401C95 21.1813 73.6941 0 47.5 0C21.2528 0 0 21.1813 0 47.3401ZM13.8143 47.3401C13.8143 28.8065 28.9038 13.7678 47.5 13.7678C66.0962 13.7678 81.1857 28.8065 81.1857 47.3401C81.1857 65.8737 66.0962 80.8595 47.5 80.8595C28.9038 80.8595 13.8143 65.8737 13.8143 47.3401Z" fill="#59B35B"/>
</svg>
