<svg width="155" height="156" viewBox="0 0 155 156" fill="none" xmlns="http://www.w3.org/2000/svg">
<path d="M82.2511 0V9.62468H80.5244V1.44746H76.3203V9.62468H74.5937V0H82.2511Z" fill="#2F4858"/>
<path d="M94.9493 6.71676C94.7789 7.73965 94.4416 8.58378 93.9375 9.24914C93.437 9.91194 92.826 10.3816 92.1045 10.658C91.386 10.935 90.6118 11.0041 89.7818 10.8654C88.9519 10.7267 88.2405 10.4092 87.6476 9.91311C87.0584 9.4144 86.633 8.76997 86.3714 7.9798C86.1134 7.18706 86.0694 6.28079 86.2393 5.26099C86.4097 4.2381 86.7452 3.39526 87.2456 2.73247C87.7497 2.0671 88.361 1.59594 89.0795 1.31897C89.801 1.04252 90.5768 0.97366 91.4067 1.11238C92.2367 1.2511 92.9465 1.56826 93.5363 2.06387C94.1291 2.56 94.5545 3.20443 94.8125 3.99717C95.0741 4.78734 95.1197 5.69387 94.9493 6.71676ZM93.223 6.42824C93.343 5.70819 93.3315 5.08213 93.1887 4.55003C93.0494 4.01537 92.8034 3.58833 92.4507 3.26892C92.0985 2.94641 91.6648 2.7421 91.1496 2.65598C90.6343 2.56987 90.1578 2.62205 89.7202 2.81254C89.283 2.99994 88.9104 3.32358 88.6023 3.78348C88.2977 4.2408 88.0855 4.82948 87.9655 5.54952C87.8456 6.26956 87.8552 6.89691 87.9945 7.43158C88.1373 7.96367 88.3849 8.39097 88.7371 8.71347C89.0898 9.03288 89.5238 9.23565 90.039 9.32177C90.5543 9.40789 91.0305 9.35725 91.4676 9.16985C91.9053 8.97936 92.2764 8.65546 92.5809 8.19814C92.889 7.73824 93.1031 7.14828 93.223 6.42824Z" fill="#2F4858"/>
<path d="M106.591 8.9678L104.931 8.39709C104.977 8.1082 104.973 7.83668 104.918 7.58254C104.864 7.32544 104.767 7.09026 104.629 6.87699C104.49 6.66372 104.312 6.47833 104.095 6.32083C103.882 6.16139 103.636 6.03385 103.358 5.93822C102.864 5.76833 102.384 5.74223 101.917 5.85992C101.451 5.97464 101.028 6.23341 100.648 6.63624C100.27 7.0361 99.9634 7.57829 99.7287 8.2628C99.4901 8.95917 99.3969 9.58303 99.4494 10.1344C99.5058 10.6838 99.6817 11.1451 99.9771 11.5183C100.277 11.8896 100.672 12.1596 101.163 12.3285C101.435 12.4221 101.702 12.474 101.963 12.4843C102.228 12.4926 102.479 12.4582 102.717 12.3811C102.959 12.3049 103.18 12.1855 103.381 12.0229C103.585 11.8612 103.758 11.6557 103.9 11.4063L105.557 11.9859C105.346 12.3972 105.072 12.7569 104.735 13.0649C104.401 13.374 104.019 13.6168 103.588 13.7933C103.158 13.9668 102.693 14.0587 102.193 14.0691C101.695 14.0765 101.175 13.9872 100.633 13.801C99.8346 13.5263 99.185 13.096 98.6848 12.5099C98.1845 11.9238 97.8738 11.2191 97.7525 10.3956C97.6313 9.57217 97.7383 8.67151 98.0734 7.69363C98.4096 6.71278 98.879 5.93674 99.4816 5.3655C100.085 4.79129 100.764 4.42682 101.518 4.27207C102.272 4.11733 103.046 4.17628 103.839 4.44891C104.345 4.62287 104.791 4.85574 105.177 5.14752C105.563 5.4393 105.879 5.78147 106.125 6.17405C106.372 6.56366 106.536 6.99464 106.619 7.467C106.706 7.93741 106.697 8.43768 106.591 8.9678Z" fill="#2F4858"/>
<path d="M110.879 7.40346L112.753 8.41894L111.948 15.9124L112.047 15.9661L117.87 11.1925L119.743 12.208L115.17 20.6726L113.701 19.8763L116.843 14.061L116.764 14.0185L111.3 18.5431L110.202 17.9481L111.002 10.8792L110.924 10.8367L107.775 16.6644L106.306 15.8681L110.879 7.40346Z" fill="#2F4858"/>
<path d="M126.719 23.6265C126.083 24.4448 125.385 25.0264 124.626 25.3713C123.871 25.7156 123.11 25.8374 122.344 25.7365C121.581 25.6376 120.867 25.3293 120.203 24.8117C119.539 24.294 119.064 23.6757 118.779 22.9568C118.497 22.2373 118.43 21.4678 118.575 20.6481C118.725 19.8279 119.117 19.0099 119.751 18.194C120.387 17.3757 121.082 16.7943 121.837 16.45C122.597 16.1051 123.358 15.9821 124.122 16.0811C124.888 16.1819 125.603 16.4911 126.267 17.0088C126.931 17.5264 127.404 18.1438 127.687 18.8608C127.973 19.5797 128.041 20.3493 127.891 21.1695C127.746 21.9891 127.355 22.8081 126.719 23.6265ZM125.338 22.5498C125.786 21.9737 126.073 21.4176 126.2 20.8816C126.332 20.345 126.319 19.8521 126.16 19.4031C126.004 18.9516 125.719 18.5651 125.307 18.2437C124.895 17.9224 124.451 17.7411 123.976 17.7C123.502 17.6565 123.02 17.7635 122.531 18.021C122.046 18.2781 121.579 18.6946 121.132 19.2707C120.684 19.8468 120.394 20.4031 120.263 20.9397C120.136 21.4758 120.15 21.9696 120.307 22.4211C120.465 22.8701 120.751 23.2554 121.163 23.5767C121.575 23.8981 122.018 24.0806 122.491 24.1241C122.967 24.1653 123.447 24.0573 123.932 23.8003C124.422 23.5427 124.89 23.1259 125.338 22.5498Z" fill="#2F4858"/>
<path d="M131.592 23.8445L132.665 22.8547L137.858 28.5043L136.784 29.4942L134.773 27.3056L128.776 32.8343L127.607 31.5619L133.603 26.0332L131.592 23.8445Z" fill="#2F4858"/>
<path d="M132.76 37.7041L140.804 32.4399L142.775 35.4614C143.179 36.0804 143.403 36.6751 143.446 37.2456C143.491 37.8187 143.382 38.3447 143.119 38.8237C142.86 39.3035 142.476 39.7106 141.965 40.0447C141.449 40.3823 140.92 40.5733 140.377 40.6178C139.834 40.6623 139.309 40.5475 138.802 40.2734C138.297 39.9975 137.841 39.5488 137.436 38.9272L136.13 36.9246L137.328 36.1407L138.506 37.9465C138.742 38.3085 138.998 38.5637 139.274 38.7123C139.551 38.8608 139.835 38.9182 140.126 38.8845C140.42 38.8533 140.709 38.7443 140.995 38.5575C141.28 38.3708 141.495 38.1499 141.639 37.8948C141.784 37.6425 141.841 37.3601 141.809 37.0479C141.782 36.7365 141.649 36.3986 141.411 36.034L140.539 34.6963L133.712 39.1637L132.76 37.7041Z" fill="#2F4858"/>
<path d="M138.775 47.7003L147.575 43.8341L150.086 49.5667L148.75 50.1538L146.938 46.0179L144.549 47.0675L146.23 50.9064L144.894 51.4935L143.213 47.6546L140.811 48.7099L142.637 52.8802L141.301 53.4673L138.775 47.7003Z" fill="#2F4858"/>
<path d="M150.806 56.1575L152.221 55.7987L154.103 63.2428L152.688 63.6016L151.959 60.7178L144.058 62.7217L143.634 61.0452L151.535 59.0413L150.806 56.1575Z" fill="#2F4858"/>
<path d="M151.253 69.9576L151.454 72.393C151.515 73.1267 151.447 73.7658 151.25 74.3103C151.057 74.8576 150.755 75.2898 150.345 75.6068C149.935 75.9237 149.437 76.1065 148.851 76.1552C148.262 76.2041 147.731 76.1067 147.259 75.8629C146.79 75.6189 146.408 75.2435 146.111 74.7368C145.816 74.2332 145.637 73.6145 145.577 72.8808L145.279 69.2885L154.856 68.4938L155 70.236L146.845 70.9128L146.998 72.7628C147.03 73.15 147.13 73.4717 147.299 73.7281C147.468 73.9845 147.678 74.1714 147.929 74.2888C148.181 74.4094 148.447 74.4581 148.728 74.4348C149.133 74.4012 149.465 74.2164 149.722 73.8807C149.984 73.5478 150.09 73.0909 150.042 72.5102L149.841 70.0748L151.253 69.9576Z" fill="#2F4858"/>
<path d="M141.258 102.632L150.058 106.498L148.58 109.872C148.301 110.509 147.969 110.995 147.584 111.328C147.2 111.666 146.79 111.864 146.355 111.923C145.918 111.984 145.482 111.919 145.047 111.728C144.689 111.57 144.412 111.367 144.218 111.117C144.026 110.869 143.902 110.594 143.846 110.292C143.791 109.99 143.791 109.681 143.848 109.364L143.762 109.326C143.608 109.631 143.381 109.889 143.08 110.099C142.782 110.313 142.434 110.443 142.039 110.488C141.643 110.534 141.222 110.458 140.775 110.262C140.32 110.062 139.959 109.771 139.691 109.39C139.427 109.011 139.288 108.553 139.274 108.016C139.259 107.48 139.4 106.874 139.695 106.2L141.258 102.632ZM141.89 104.814L141.138 106.531C140.884 107.111 140.812 107.577 140.921 107.929C141.031 108.285 141.261 108.54 141.61 108.694C141.871 108.808 142.134 108.847 142.4 108.81C142.668 108.774 142.915 108.663 143.14 108.478C143.367 108.294 143.553 108.037 143.698 107.707L144.468 105.947L141.89 104.814ZM145.616 106.451L144.924 108.03C144.803 108.306 144.745 108.576 144.748 108.841C144.755 109.107 144.823 109.344 144.954 109.552C145.087 109.764 145.282 109.927 145.54 110.04C145.881 110.19 146.214 110.193 146.54 110.049C146.865 109.908 147.131 109.602 147.337 109.131L148.043 107.517L145.616 106.451Z" fill="#2F4858"/>
<path d="M144.385 118.072L143.44 119.519L137.957 115.931L137.908 116.006L140.92 123.383L140.066 124.693L132.021 119.429L132.973 117.969L138.453 121.555L138.496 121.488L135.496 114.102L136.34 112.807L144.385 118.072Z" fill="#2F4858"/>
<path d="M128.784 119.73L131.535 122.267L131.1 122.741C131.08 123.016 131.122 123.329 131.225 123.68C131.328 124.03 131.535 124.439 131.846 124.905C132.158 125.371 132.614 125.915 133.215 126.538L136.033 129.481L131.874 134.007L125.85 128.452L125.125 129.241L122.381 126.71L123.512 125.479L125.211 127.045L129.358 122.533L127.652 120.961L128.784 119.73ZM129.727 124.234L126.981 127.222L131.931 131.786L133.898 129.646L132.084 127.768C131.631 127.295 131.245 126.85 130.927 126.433C130.608 126.016 130.351 125.623 130.154 125.254C129.96 124.887 129.817 124.548 129.727 124.234Z" fill="#2F4858"/>
<path d="M121.868 130.057L127.77 137.652L122.838 141.497L121.942 140.344L125.5 137.57L123.898 135.508L120.595 138.083L119.699 136.929L123.002 134.355L121.391 132.281L117.803 135.079L116.906 133.925L121.868 130.057Z" fill="#2F4858"/>
<path d="M107.443 144.987C106.951 144.075 106.699 143.201 106.689 142.366C106.677 141.535 106.872 140.789 107.271 140.127C107.669 139.466 108.237 138.935 108.977 138.534C109.717 138.133 110.473 137.946 111.245 137.973C112.016 138.004 112.747 138.251 113.438 138.713C114.128 139.18 114.718 139.868 115.21 140.777C115.702 141.689 115.954 142.561 115.966 143.392C115.976 144.227 115.783 144.975 115.386 145.635C114.986 146.298 114.416 146.829 113.676 147.23C112.936 147.631 112.181 147.818 111.412 147.789C110.64 147.763 109.909 147.516 109.219 147.049C108.528 146.586 107.936 145.899 107.443 144.987ZM108.983 144.153C109.33 144.795 109.722 145.282 110.162 145.614C110.599 145.95 111.055 146.136 111.529 146.171C112.005 146.208 112.473 146.103 112.932 145.854C113.392 145.605 113.736 145.271 113.964 144.851C114.194 144.434 114.29 143.95 114.251 143.397C114.211 142.849 114.017 142.254 113.67 141.612C113.323 140.97 112.931 140.481 112.493 140.144C112.054 139.812 111.597 139.627 111.121 139.59C110.647 139.554 110.18 139.661 109.721 139.91C109.261 140.159 108.917 140.492 108.687 140.909C108.458 141.329 108.364 141.813 108.404 142.361C108.443 142.913 108.636 143.511 108.983 144.153Z" fill="#2F4858"/>
<path d="M72.7492 156V146.375H74.4758V154.553H78.6799V146.375H80.4066V156H72.7492Z" fill="#2F4858"/>
<path d="M60.051 149.283C60.2214 148.261 60.5587 147.416 61.0627 146.751C61.5632 146.088 62.1742 145.619 62.8958 145.342C63.6142 145.065 64.3885 144.996 65.2184 145.135C66.0484 145.274 66.7598 145.591 67.3526 146.087C67.9418 146.586 68.3672 147.23 68.6288 148.02C68.8868 148.813 68.9309 149.719 68.761 150.739C68.5906 151.762 68.2551 152.605 67.7546 153.268C67.2505 153.933 66.6392 154.404 65.9208 154.681C65.1992 154.958 64.4235 155.027 63.5935 154.888C62.7636 154.749 62.0537 154.432 61.464 153.936C60.8711 153.44 60.4457 152.796 60.1877 152.003C59.9261 151.213 59.8806 150.306 60.051 149.283ZM61.7772 149.572C61.6573 150.292 61.6687 150.918 61.8116 151.45C61.9508 151.985 62.1968 152.412 62.5495 152.731C62.9017 153.054 63.3354 153.258 63.8507 153.344C64.366 153.43 64.8424 153.378 65.2801 153.188C65.7172 153 66.0899 152.677 66.398 152.217C66.7025 151.759 66.9147 151.171 67.0347 150.451C67.1547 149.731 67.145 149.103 67.0058 148.569C66.8629 148.036 66.6154 147.609 66.2632 147.287C65.9105 146.967 65.4765 146.765 64.9613 146.678C64.446 146.592 63.9698 146.643 63.5326 146.83C63.095 147.021 62.7239 147.345 62.4194 147.802C62.1112 148.262 61.8972 148.852 61.7772 149.572Z" fill="#2F4858"/>
<path d="M48.4091 147.032L50.0689 147.603C50.0228 147.892 50.0273 148.163 50.0824 148.417C50.1365 148.674 50.2328 148.91 50.3714 149.123C50.5099 149.336 50.6878 149.521 50.905 149.679C51.1183 149.838 51.3639 149.966 51.642 150.062C52.1361 150.231 52.6166 150.258 53.0836 150.14C53.5496 150.025 53.9723 149.766 54.3518 149.364C54.7303 148.964 55.0368 148.422 55.2714 147.737C55.5101 147.041 55.6032 146.417 55.5508 145.865C55.4944 145.316 55.3184 144.855 55.023 144.482C54.7236 144.11 54.3284 143.84 53.8373 143.671C53.5651 143.578 53.2985 143.526 53.0374 143.516C52.7724 143.507 52.5208 143.542 52.2827 143.619C52.0416 143.695 51.8205 143.814 51.6192 143.977C51.415 144.139 51.242 144.344 51.1003 144.594L49.4436 144.014C49.654 143.603 49.9278 143.243 50.2649 142.935C50.599 142.626 50.9816 142.383 51.4124 142.207C51.8423 142.033 52.3071 141.941 52.8067 141.931C53.3054 141.923 53.8254 142.013 54.3668 142.199C55.1656 142.473 55.8151 142.904 56.3154 143.49C56.8156 144.076 57.1264 144.781 57.2476 145.604C57.3689 146.428 57.2619 147.328 56.9267 148.306C56.5905 149.287 56.1212 150.063 55.5186 150.634C54.915 151.209 54.2361 151.573 53.4819 151.728C52.7278 151.882 51.9542 151.824 51.1613 151.551C50.6554 151.377 50.2094 151.144 49.8232 150.852C49.4371 150.561 49.1211 150.218 48.8753 149.826C48.6286 149.436 48.4637 149.005 48.3809 148.533C48.2941 148.062 48.3035 147.562 48.4091 147.032Z" fill="#2F4858"/>
<path d="M44.1209 148.597L42.2475 147.581L43.0526 140.088L42.9536 140.034L37.1306 144.807L35.2572 143.792L39.8307 135.327L41.2997 136.124L38.1577 141.939L38.2361 141.981L43.7004 137.457L44.798 138.052L43.9983 145.121L44.0767 145.163L47.2254 139.336L48.6945 140.132L44.1209 148.597Z" fill="#2F4858"/>
<path d="M28.2812 132.374C28.9172 131.555 29.6149 130.974 30.3744 130.629C31.1295 130.285 31.8901 130.163 32.656 130.264C33.4195 130.363 34.1332 130.671 34.7972 131.188C35.4612 131.706 35.9361 132.324 36.2217 133.043C36.5029 133.763 36.5708 134.532 36.4254 135.352C36.2756 136.172 35.8837 136.99 35.2497 137.806C34.6137 138.625 33.9182 139.206 33.1631 139.55C32.4036 139.895 31.6421 140.018 30.8786 139.919C30.1127 139.818 29.3977 139.509 28.7337 138.991C28.0697 138.474 27.5961 137.856 27.3129 137.139C27.0273 136.42 26.9594 135.651 27.1092 134.831C27.2546 134.011 27.6453 133.192 28.2812 132.374ZM29.6623 133.45C29.2147 134.026 28.9272 134.583 28.8 135.119C28.6684 135.655 28.6818 136.148 28.8403 136.597C28.9968 137.049 29.2811 137.435 29.6934 137.756C30.1056 138.078 30.5494 138.259 31.0248 138.3C31.4984 138.344 31.9799 138.237 32.4694 137.979C32.9545 137.722 33.4209 137.306 33.8686 136.729C34.3162 136.153 34.6059 135.597 34.7375 135.06C34.8647 134.524 34.85 134.031 34.6935 133.579C34.5351 133.13 34.2498 132.745 33.8375 132.423C33.4253 132.102 32.9824 131.92 32.5089 131.876C32.0335 131.835 31.5532 131.943 31.0681 132.2C30.5786 132.457 30.11 132.874 29.6623 133.45Z" fill="#2F4858"/>
<path d="M23.4087 132.155L22.3351 133.145L17.1425 127.496L18.2161 126.506L20.2277 128.694L26.2239 123.166L27.3933 124.438L21.3971 129.967L23.4087 132.155Z" fill="#2F4858"/>
<path d="M22.2404 118.296L14.1958 123.56L12.2249 120.539C11.8211 119.92 11.5976 119.325 11.5543 118.755C11.5093 118.182 11.6182 117.655 11.8812 117.177C12.1399 116.697 12.5245 116.29 13.0352 115.955C13.5511 115.618 14.0803 115.427 14.623 115.382C15.1657 115.338 15.6908 115.453 16.1984 115.727C16.7034 116.003 17.1586 116.451 17.5641 117.073L18.8703 119.076L17.6723 119.86L16.4944 118.054C16.2583 117.692 16.0021 117.436 15.7258 117.288C15.4496 117.139 15.1655 117.082 14.8737 117.116C14.5802 117.147 14.2907 117.256 14.0052 117.443C13.7198 117.629 13.5052 117.85 13.3614 118.105C13.2159 118.358 13.1591 118.64 13.1909 118.952C13.2184 119.264 13.351 119.602 13.5888 119.966L14.4614 121.304L21.2883 116.836L22.2404 118.296Z" fill="#2F4858"/>
<path d="M16.2246 108.3L7.42464 112.166L4.91413 106.433L6.25045 105.846L8.06172 109.982L10.4508 108.933L8.76955 105.094L10.1059 104.507L11.7871 108.346L14.189 107.29L12.3627 103.12L13.699 102.533L16.2246 108.3Z" fill="#2F4858"/>
<path d="M4.19407 99.8425L2.7795 100.201L0.897404 92.7572L2.31198 92.3984L3.04109 95.2822L10.9418 93.2782L11.3657 94.9548L3.46496 96.9587L4.19407 99.8425Z" fill="#2F4858"/>
<path d="M3.74717 86.0423L3.54569 83.6068C3.48499 82.8731 3.55296 82.234 3.7496 81.6895C3.94286 81.1422 4.24452 80.71 4.65459 80.393C5.06465 80.0761 5.56272 79.8933 6.14878 79.8446C6.73796 79.7957 7.26862 79.8932 7.74077 80.1369C8.20979 80.3809 8.59239 80.7563 8.88855 81.263C9.18445 81.7666 9.36275 82.3853 9.42345 83.119L9.72063 86.7113L0.144135 87.5061L0 85.7638L8.15499 85.087L8.00194 83.237C7.96991 82.8498 7.86953 82.5281 7.7008 82.2717C7.53207 82.0153 7.322 81.8284 7.0706 81.711C6.81894 81.5904 6.55283 81.5417 6.27227 81.565C5.86702 81.5987 5.53546 81.7834 5.27762 82.1191C5.01639 82.452 4.9098 82.9089 4.95785 83.4896L5.15933 85.9251L3.74717 86.0423Z" fill="#2F4858"/>
<path d="M13.7427 53.3678L4.94274 49.5016L6.4204 46.1275C6.69935 45.4906 7.03144 45.0053 7.41666 44.6716C7.80028 44.3338 8.20983 44.1357 8.6453 44.0773C9.08204 44.016 9.51811 44.081 9.95352 44.2723C10.3116 44.4296 10.5879 44.6331 10.7826 44.8828C10.9743 45.1313 11.0981 45.4063 11.1539 45.708C11.2097 46.0096 11.2091 46.3189 11.1522 46.6361L11.2381 46.6738C11.3923 46.3686 11.6196 46.111 11.9199 45.9008C12.2187 45.6865 12.5659 45.5568 12.9614 45.5116C13.3569 45.4664 13.7781 45.542 14.225 45.7383C14.6805 45.9384 15.0417 46.2289 15.3088 46.6096C15.5729 46.9891 15.7122 47.4472 15.7266 47.9838C15.7409 48.5204 15.6005 49.1258 15.3052 49.8L13.7427 53.3678ZM13.1099 51.1859L13.862 49.4687C14.1158 48.8892 14.1883 48.4233 14.0796 48.071C13.9692 47.7146 13.7393 47.4596 13.3898 47.3061C13.1291 47.1916 12.866 47.1529 12.6003 47.1902C12.3318 47.2262 12.0852 47.3368 11.8606 47.5221C11.6332 47.7061 11.4472 47.9631 11.3027 48.293L10.5318 50.0532L13.1099 51.1859ZM9.38456 49.5492L10.0763 47.9697C10.1969 47.6943 10.2555 47.4241 10.2519 47.1591C10.2456 46.8929 10.1769 46.6558 10.046 46.4477C9.9135 46.2355 9.71833 46.0728 9.46052 45.9596C9.11964 45.8098 8.78614 45.807 8.46002 45.9511C8.13515 46.0923 7.86969 46.3982 7.66362 46.8687L6.95683 48.4826L9.38456 49.5492Z" fill="#2F4858"/>
<path d="M10.6156 37.9285L11.56 36.4807L17.0435 40.069L17.0923 39.9942L14.0801 32.6172L14.9347 31.3071L22.9793 36.5712L22.0272 38.0309L16.5476 34.4452L16.5039 34.512L19.5045 41.8983L18.6602 43.1927L10.6156 37.9285Z" fill="#2F4858"/>
<path d="M26.2167 36.2698L23.4654 33.733L23.9008 33.2593C23.9204 32.9835 23.8787 32.6704 23.7757 32.3199C23.6727 31.9694 23.4654 31.5612 23.154 31.0951C22.8425 30.6291 22.3861 30.0848 21.7849 29.4623L18.967 26.5192L23.1268 21.9932L29.1506 27.5474L29.8752 26.7591L32.6195 29.2895L31.4882 30.5204L29.7898 28.9544L25.6427 33.4665L27.348 35.0389L26.2167 36.2698ZM25.2736 31.7656L28.0193 28.7783L23.0691 24.214L21.102 26.3542L22.9162 28.2314C23.3696 28.7048 23.7555 29.15 24.0738 29.567C24.3921 29.984 24.6496 30.3769 24.8463 30.7456C25.0408 31.1123 25.1832 31.4523 25.2736 31.7656Z" fill="#2F4858"/>
<path d="M33.1322 25.943L27.23 18.3477L32.162 14.5029L33.0583 15.6563L29.5 18.4302L31.1024 20.4922L34.4051 17.9174L35.3014 19.0708L31.9986 21.6456L33.6096 23.7187L37.1975 20.9216L38.0938 22.075L33.1322 25.943Z" fill="#2F4858"/>
<path d="M47.5567 11.0129C48.0495 11.9249 48.301 12.7985 48.3113 13.6337C48.3227 14.4647 48.1286 15.2111 47.7287 15.8732C47.3316 16.5337 46.763 17.0646 46.023 17.4657C45.2829 17.8668 44.5269 18.054 43.7548 18.0272C42.984 17.9961 42.2531 17.7493 41.5621 17.2867C40.8724 16.8198 40.2819 16.1317 39.7906 15.2224C39.2978 14.3104 39.0457 13.4389 39.0342 12.608C39.024 11.7728 39.2174 11.0249 39.6145 10.3644C40.0144 9.70231 40.5843 9.17072 41.3244 8.7696C42.0644 8.36848 42.8191 8.18207 43.5884 8.21037C44.3604 8.23718 45.0913 8.48402 45.7811 8.95089C46.4721 9.41351 47.0639 10.1008 47.5567 11.0129ZM46.0175 11.8472C45.6707 11.2052 45.2777 10.7182 44.8387 10.3861C44.4009 10.0499 43.9449 9.86422 43.4707 9.82915C42.995 9.79131 42.5274 9.89691 42.068 10.1459C41.6086 10.395 41.2646 10.7293 41.036 11.1488C40.806 11.5656 40.7104 12.0503 40.7493 12.6028C40.7894 13.151 40.9829 13.7461 41.3298 14.3881C41.6767 15.0301 42.069 15.5193 42.5068 15.8555C42.9458 16.1875 43.4032 16.3725 43.8789 16.4103C44.3531 16.4454 44.8199 16.3384 45.2793 16.0894C45.7387 15.8404 46.0835 15.5074 46.3135 15.0906C46.5421 14.6711 46.6363 14.1872 46.5962 13.6389C46.5573 13.0864 46.3644 12.4892 46.0175 11.8472Z" fill="#2F4858"/>
</svg>
